<svg id="Layer_1" data-name="Layer 1" viewBox="0 0 16 16"><defs><style>.cls-1{fill:#fee000;fill-rule:evenodd;}</style></defs><title>Dafabet-emblem-opt</title><path class="cls-1" d="M51.81,30.72,40,34.8S25.26,48.63,23,70c-1.19,5.19,7.16,5.61,7.43,5.72,31,4.43,59.16-20.15,50.75-42.36C73.31,14,37.52,18.85,14.84,51.54c37.59-37.77,58.89-20.19,59.87-15,4.18,12.5-15.88,35.94-42,31.17C38.48,43.76,51.81,30.72,51.81,30.72ZM69.62,10.34C72.61,12.2,89,19.15,97,45.85c.12.1-3.72-25-27.12-36.56C62,5.35,37.43,0,18.64,14.74A52.74,52.74,0,0,1,69.62,10.34Zm1.26,74.4C91,72.3,93.37,55.91,90.11,41.35c1.16,12.15-4,17.06-4,17.06S85.05,73.94,61.65,83.27c-10.24,3.34-22.33,2.25-30.09-1.84C2.74,67.31,11.24,39.72,11.24,39.72S16,17.15,42.85,11.07c22-4.25,41.63,11.18,48.89,24.41C91.81,35.25,77-1.27,34,8.12,25.77,9.88-.4,21.95,2,54.3c.52,20.88,26.64,47.21,61.4,37,36.9-12.78,29.24-45.1,29.24-45.1S96.09,72.76,70.88,84.74Z" transform="translate(-1.87 -5.02)"/></svg>