<svg width="24" height="24" viewBox="0 0 24 24" fill="none" xmlns="http://www.w3.org/2000/svg">
<g id="switch-icon">
<circle cx="12" cy="12" r="12" fill="#5E5E5E"/>
<path d="M6.00286 8.58V8.23264C6.00286 8.09603 6.05752 7.96502 6.15481 7.86842C6.2521 7.77182 6.38405 7.71755 6.52163 7.71755H15.7046L15.0459 7.12208C14.9955 7.07475 14.9552 7.01788 14.9274 6.95482C14.8996 6.89177 14.8847 6.82382 14.8838 6.75498C14.8829 6.68615 14.8959 6.61782 14.922 6.55405C14.9481 6.49028 14.9868 6.43235 15.0359 6.38369L15.2708 6.15047C15.3682 6.0541 15.5001 6 15.6376 6C15.7751 6 15.907 6.0541 16.0044 6.15047L17.7976 7.91803C17.9272 8.04697 18 8.22168 18 8.40384C18 8.58599 17.9272 8.7607 17.7976 8.88964L16.0064 10.6582C15.909 10.7546 15.7771 10.8087 15.6396 10.8087C15.5021 10.8087 15.3702 10.7546 15.2728 10.6582L15.0379 10.425C14.9888 10.3763 14.9501 10.3184 14.924 10.2546C14.8979 10.1908 14.8849 10.1225 14.8858 10.0537C14.8867 9.98485 14.9016 9.9169 14.9294 9.85384C14.9572 9.79079 14.9975 9.73392 15.0479 9.68659L15.7066 9.09111H6.52263C6.38556 9.09138 6.25396 9.03777 6.15657 8.942C6.05918 8.84624 6.00392 8.71609 6.00286 8.58ZM17.4778 14.9129H8.29485L8.95356 14.3174C9.0039 14.2701 9.04418 14.2132 9.07201 14.1501C9.09985 14.0871 9.11467 14.0191 9.1156 13.9503C9.11653 13.8814 9.10355 13.8131 9.07744 13.7494C9.05132 13.6856 9.0126 13.6277 8.96355 13.579L8.72965 13.3438C8.63224 13.2474 8.50033 13.1933 8.36282 13.1933C8.22531 13.1933 8.0934 13.2474 7.99598 13.3438L6.20277 15.1104C6.13849 15.1741 6.08749 15.2499 6.0527 15.3332C6.01791 15.4166 6 15.5059 6 15.5962C6 15.6864 6.01791 15.7757 6.0527 15.8591C6.08749 15.9425 6.13849 16.0182 6.20277 16.082L7.99598 17.8495C8.0934 17.9459 8.22531 18 8.36282 18C8.50033 18 8.63224 17.9459 8.72965 17.8495L8.96455 17.6163C9.0136 17.5676 9.05232 17.5097 9.07844 17.4459C9.10455 17.3822 9.11753 17.3139 9.1166 17.245C9.11567 17.1762 9.10085 17.1082 9.07301 17.0452C9.04518 16.9821 9.0049 16.9253 8.95456 16.8779L8.29585 16.2824H17.4788C17.6164 16.2824 17.7483 16.2282 17.8456 16.1316C17.9429 16.035 17.9976 15.904 17.9976 15.7674V15.4279C17.9976 15.2913 17.9429 15.1603 17.8456 15.0637C17.7483 14.9671 17.6164 14.9129 17.4788 14.9129H17.4778Z" fill="white"/>
</g>
</svg>
