<svg version="1.2" xmlns="http://www.w3.org/2000/svg" viewBox="0 0 14 14" width="14" height="14">
    <style>
        .s0 { fill: none } 
        .s1 { fill: #ffac00 } 
        .s2 { fill: #757575 } 
    </style>
    <g id="token-icon">
        <g id="Layer_1-2">
            <path id="Layer" fill-rule="evenodd" class="s0" d="m10.5 1q0.1 0.1 0.2 0.2-0.1-0.1-0.2-0.2z"/>
            <path id="Layer" fill-rule="evenodd" class="s0" d="m1.9 2.2q0 0 0-0.1 0 0 0 0.1z"/>
            <path id="Layer" fill-rule="evenodd" class="s0" d="m2.4 1.7q0.1-0.1 0.2-0.2-0.1 0.1-0.2 0.2z"/>
            <path id="Layer" fill-rule="evenodd" class="s0" d="m1.7 2.4q0 0 0 0 0 0 0 0z"/>
            <path id="Layer" fill-rule="evenodd" class="s0" d="m6.9 0q0.1 0 0.3 0-0.2 0-0.3 0z"/>
            <path id="Layer" fill-rule="evenodd" class="s0" d="m1 3.3q0.2-0.2 0.3-0.4-0.1 0.2-0.3 0.4z"/>
            <path id="Layer" fill-rule="evenodd" class="s0" d="m1.4 11.1q-0.2-0.3-0.4-0.7 0.2 0.4 0.4 0.7z"/>
            <path id="Layer" fill-rule="evenodd" class="s0" d="m2 11.7q-0.3-0.2-0.6-0.6 0.3 0.4 0.6 0.6z"/>
            <path id="Layer" fill-rule="evenodd" class="s0" d="m0 7.4q0-0.1 0-0.2 0 0.1 0 0.2z"/>
            <path id="Layer" fill-rule="evenodd" class="s0" d="m2.2 11.9q-0.1 0-0.2-0.1 0.1 0.1 0.2 0.1z"/>
            <path id="Layer" fill-rule="evenodd" class="s0" d="m8.7 0.2q0.1 0.1 0.2 0.1-0.1 0-0.2-0.1z"/>
            <path id="Layer" fill-rule="evenodd" class="s0" d="m9.5 0.5q0.3 0.1 0.5 0.2-0.2-0.1-0.5-0.2z"/>
            <path id="Layer" fill-rule="evenodd" class="s0" d="m7.2 0q0.2 0 0.3 0-0.1 0-0.3 0z"/>
            <path id="Layer" fill-rule="evenodd" class="s0" d="m10 0.7q0.1 0.1 0.3 0.2-0.2-0.1-0.3-0.2z"/>
            <path id="Layer" fill-rule="evenodd" class="s0" d="m10.3 0.9q0.1 0 0.2 0.1-0.1-0.1-0.2-0.1z"/>
            <path id="Layer" fill-rule="evenodd" class="s0" d="m9 0.3q0.1 0 0.2 0.1-0.1-0.1-0.2-0.1z"/>
            <path id="Layer" fill-rule="evenodd" class="s0" d="m9.2 0.4q0.2 0 0.3 0.1-0.1-0.1-0.3-0.1z"/>
            <path id="Layer" fill-rule="evenodd" class="s0" d="m7.8 0.1q0.2 0 0.3 0-0.1 0-0.3 0z"/>
            <path id="Layer" fill-rule="evenodd" class="s0" d="m7.5 0q0.2 0 0.3 0.1-0.1-0.1-0.3-0.1z"/>
            <path id="Layer" fill-rule="evenodd" class="s0" d="m2.6 12.3q-0.2-0.2-0.4-0.3 0.2 0.1 0.4 0.3z"/>
            <path id="Layer" fill-rule="evenodd" class="s0" d="m8.4 0.2q0.1 0 0.3 0-0.2 0-0.3 0z"/>
            <path id="Layer" fill-rule="evenodd" class="s0" d="m8.1 0.1q0.1 0 0.3 0.1-0.2-0.1-0.3-0.1z"/>
            <path id="Layer" fill-rule="evenodd" class="s0" d="m2.2 1.8q0.1 0 0.2-0.1-0.1 0.1-0.2 0.1z"/>
            <path id="Layer" fill-rule="evenodd" class="s0" d="m6 13.8q-0.1-0.1-0.3-0.1 0.2 0 0.3 0.1z"/>
            <path id="Layer" fill-rule="evenodd" class="s0" d="m10.6 12.7q-0.1 0.1-0.2 0.2 0.1-0.1 0.2-0.2z"/>
            <path id="Layer" fill-rule="evenodd" class="s0" d="m10.2 13q-0.4 0.2-0.7 0.3 0.3-0.1 0.7-0.3z"/>
            <path id="Layer" fill-rule="evenodd" class="s0" d="m6.6 13.8q-0.1 0-0.3 0 0.2 0 0.3 0z"/>
            <path id="Layer" fill-rule="evenodd" class="s0" d="m6.3 13.8q-0.2 0-0.3 0 0.1 0 0.3 0z"/>
            <path id="Layer" fill-rule="evenodd" class="s0" d="m11.6 12q-0.4 0.4-1 0.7 0.6-0.3 1-0.7z"/>
            <path id="Layer" fill-rule="evenodd" class="s0" d="m2.8 12.5q-0.1-0.1-0.2-0.2 0.1 0.1 0.2 0.2z"/>
            <path id="Layer" fill-rule="evenodd" class="s0" d="m13.8 7.1q0 0.4 0 0.7 0-0.3 0-0.7z"/>
            <path id="Layer" fill-rule="evenodd" class="s0" d="m12.8 10.6q-0.1 0.1-0.2 0.3 0.1-0.2 0.2-0.3z"/>
            <path id="Layer" fill-rule="evenodd" class="s0" d="m13.3 9.6q-0.1 0.2-0.2 0.4 0.1-0.2 0.2-0.4z"/>
            <path id="Layer" fill-rule="evenodd" class="s0" d="m12.2 11.4q-0.1 0.1-0.2 0.2 0.1-0.1 0.2-0.2z"/>
            <path id="Layer" fill-rule="evenodd" class="s0" d="m13.7 8.1q-0.1 0.6-0.3 1.2 0.2-0.6 0.3-1.2z"/>
            <path id="Layer" fill-rule="evenodd" class="s0" d="m3.5 12.9q-0.1 0-0.2-0.1 0.1 0.1 0.2 0.1z"/>
            <path id="Layer" fill-rule="evenodd" class="s0" d="m4.3 13.3q-0.2-0.1-0.5-0.2 0.3 0.1 0.5 0.2z"/>
            <path id="Layer" fill-rule="evenodd" class="s0" d="m3.8 13.1q-0.1-0.1-0.2-0.1 0.1 0 0.2 0.1z"/>
            <path id="Layer" fill-rule="evenodd" class="s0" d="m3.1 12.7q-0.1-0.1-0.3-0.2 0.2 0.1 0.3 0.2z"/>
            <path id="Layer" fill-rule="evenodd" class="s0" d="m3.3 12.8q-0.1-0.1-0.2-0.1 0.1 0 0.2 0.1z"/>
            <path id="Layer" fill-rule="evenodd" class="s0" d="m5.7 13.7q-0.1 0-0.2 0 0.1 0 0.2 0z"/>
            <path id="Layer" fill-rule="evenodd" class="s0" d="m4.6 13.4q-0.1 0-0.3-0.1 0.2 0.1 0.3 0.1z"/>
            <path id="Layer" fill-rule="evenodd" class="s0" d="m5.1 13.6q-0.1 0-0.2-0.1 0.1 0.1 0.2 0.1z"/>
            <path id="Layer" fill-rule="evenodd" class="s0" d="m5.4 13.7q-0.1-0.1-0.2-0.1 0.1 0 0.2 0.1z"/>
            <path id="Layer" fill-rule="evenodd" class="s0" d="m4.9 13.5q-0.2 0-0.3-0.1 0.1 0.1 0.3 0.1z"/>
            <path id="Layer" fill-rule="evenodd" class="s0" d="m1 3.4c-0.6 1-1 2.2-1 3.5q0 0.1 0 0.2 0-0.1 0-0.2c0-1.3 0.4-2.5 1-3.5z"/>
            <path id="Layer" fill-rule="evenodd" class="s0" d="m13.8 6.4q0 0.1 0 0.2 0-0.1 0-0.2z"/>
            <path id="Layer" fill-rule="evenodd" class="s0" d="m6.9 1.5v10.8l0.7 0.3v-9.1l3.8 2.1-2.4 1.4v1.6l4.8-2.7q0 0.3 0 0.5c-0.1-1.1-0.4-2.1-0.9-3q0.5 0.9 0.7 1.9z"/>
            <path id="Layer" fill-rule="evenodd" class="s0" d="m12.4 2.7q0.3 0.3 0.5 0.7-0.2-0.4-0.5-0.7z"/>
            <path id="Layer" fill-rule="evenodd" class="s0" d="m13.8 6.7q0 0.1 0 0.2 0-0.1 0-0.2z"/>
            <path id="Layer" fill-rule="evenodd" class="s0" d="m12.2 2.5q0.1 0.1 0.2 0.2-0.1-0.1-0.2-0.2z"/>
            <path id="Layer" fill-rule="evenodd" class="s0" d="m11.8 2.1q0.2 0.2 0.4 0.4-0.2-0.2-0.4-0.4z"/>
            <path id="Layer" fill-rule="evenodd" class="s0" d="m6.9 13.8q-0.1 0-0.3 0 0.2 0 0.3 0z"/>
            <path id="Layer" fill-rule="evenodd" class="s0" d="m13.8 7.1q0-0.1 0-0.2 0 0.1 0 0.2z"/>
            <path id="Layer" fill-rule="evenodd" class="s0" d="m11.7 11.9q0.1-0.1 0.2-0.2-0.1 0.1-0.2 0.2z"/>
            <path id="Layer" fill-rule="evenodd" class="s0" d="m7.6 13.8q0.9-0.1 1.8-0.4-0.9 0.3-1.8 0.4z"/>
            <path id="Layer" fill-rule="evenodd" class="s0" d="m11.6 1.9q0.1 0.1 0.2 0.2-0.1-0.1-0.2-0.2z"/>
            <path id="Layer" fill-rule="evenodd" class="s0" d="m6.9 12.3v-10.8l-0.7-0.3v9.1l-3.8-2.1 2.4-1.4v-1.6l-4.7 2.7q-0.1-0.3-0.1-0.5c0.1 1.1 0.4 2.1 1 3q-0.6-0.8-0.8-1.8z"/>
            <path id="Layer" fill-rule="evenodd" class="s0" d="m11 1.3q0.1 0.1 0.2 0.2-0.1-0.1-0.2-0.2z"/>
            <path id="Layer" fill-rule="evenodd" class="s0" d="m11.2 1.5q0.2 0.2 0.4 0.4-0.2-0.2-0.4-0.4z"/>
            <path id="Layer" fill-rule="evenodd" class="s0" d="m10.8 1.2q0.1 0 0.2 0.1-0.1-0.1-0.2-0.1z"/>
            <path id="Layer" class="s1" d="m2.2 1.8q-0.1 0.2-0.3 0.3 0.2-0.1 0.3-0.3z"/>
            <path id="Layer" class="s1" d="m4.8 5.2v1.6l-2.4 1.4 3.8 2.1v-10.3c-1.3 0.2-2.6 0.7-3.6 1.5q-0.1 0.1-0.2 0.2 0 0 0 0-0.1 0.1-0.2 0.1-0.1 0.2-0.3 0.3 0 0 0 0.1-0.1 0.1-0.2 0.2 0 0 0 0-0.2 0.2-0.4 0.5-0.1 0.2-0.3 0.4 0 0 0 0.1c-0.6 1-1 2.2-1 3.5q0 0.1 0 0.2 0 0.1 0 0.1 0 0.1 0 0.2 0 0 0 0 0 0.2 0.1 0.5z"/>
            <path id="Layer" class="s1" d="m2.4 1.7q0 0 0 0 0 0 0 0z"/>
            <path id="Layer" class="s1" d="m1.3 2.9q0.2-0.3 0.4-0.5-0.2 0.2-0.4 0.5z"/>
            <path id="Layer" class="s1" d="m1.7 2.4q0.1-0.1 0.2-0.2-0.1 0.1-0.2 0.2z"/>
            <path id="Layer" class="s1" d="m0 7.2q0 0 0-0.1 0 0.1 0 0.1z"/>
            <path id="Layer" class="s1" d="m0 7.4q0 0 0 0 0 0 0 0z"/>
            <path id="Layer" class="s1" d="m1 3.4q0-0.1 0-0.1 0 0 0 0.1z"/>
            <path id="Layer" class="s1" d="m1.4 11.1q0 0 0 0 0 0 0 0z"/>
            <path id="Layer" class="s1" d="m1 10.4z"/>
            <path id="Layer" class="s1" d="m2.2 12q0 0 0-0.1 0 0.1 0 0.1z"/>
            <path id="Layer" class="s1" d="m3.3 12.8q0 0 0 0 0 0 0 0z"/>
            <path id="Layer" class="s1" d="m3.1 12.7q0 0 0 0 0 0 0 0z"/>
            <path id="Layer" class="s1" d="m4.3 13.3q0 0 0 0 0 0 0 0z"/>
            <path id="Layer" class="s1" d="m4.6 13.4q0 0 0 0 0 0 0 0z"/>
            <path id="Layer" class="s1" d="m2 11.8q0 0 0-0.1 0 0.1 0 0.1z"/>
            <path id="Layer" class="s1" d="m4.9 13.5q0 0 0 0 0 0 0 0z"/>
            <path id="Layer" class="s1" d="m2.8 12.5q0 0 0 0 0 0 0 0z"/>
            <path id="Layer" class="s1" d="m3.6 13q0 0-0.1-0.1 0.1 0.1 0.1 0.1z"/>
            <path id="Layer" class="s1" d="m2.6 12.3q0 0 0 0 0 0 0 0z"/>
            <path id="Layer" class="s1" d="m6.9 12.3l-6.7-3.7q0.2 1 0.8 1.8 0.2 0.4 0.4 0.7 0 0 0 0 0.3 0.4 0.6 0.6 0 0.1 0 0.1 0.1 0.1 0.2 0.1 0 0.1 0 0.1 0.2 0.1 0.4 0.3 0 0 0 0 0.1 0.1 0.2 0.2 0 0 0.1 0 0.1 0.1 0.2 0.2 0 0 0 0 0.1 0 0.2 0.1 0 0 0 0 0.1 0.1 0.2 0.1 0.1 0.1 0.1 0.1 0.1 0 0.2 0.1 0 0 0 0 0.3 0.1 0.5 0.2 0 0 0 0 0.2 0.1 0.3 0.1 0 0 0 0 0.1 0.1 0.3 0.1 0 0 0 0 0.1 0.1 0.2 0.1 0 0 0.1 0 0.1 0 0.2 0.1 0 0 0.1 0 0.1 0 0.2 0 0 0 0 0 0.2 0 0.3 0.1 0 0 0 0 0.1 0 0.3 0 0 0 0 0 0.2 0 0.3 0 0 0 0 0 0.2 0 0.3 0v-1.5z"/>
            <path id="Layer" class="s1" d="m6.3 13.8q0 0 0 0 0 0 0 0z"/>
            <path id="Layer" class="s1" d="m3.8 13.1q0 0 0 0 0 0 0 0z"/>
            <path id="Layer" class="s1" d="m5.2 13.6q-0.1 0-0.1 0 0 0 0.1 0z"/>
            <path id="Layer" class="s1" d="m6.6 13.8q0 0 0 0 0 0 0 0z"/>
            <path id="Layer" class="s1" d="m5.5 13.7q-0.1 0-0.1 0 0 0 0.1 0z"/>
            <path id="Layer" class="s1" d="m6 13.8q0 0 0 0 0 0 0 0z"/>
            <path id="Layer" class="s1" d="m5.7 13.7q0 0 0 0 0 0 0 0z"/>
            <path id="Layer" class="s2" d="m6.2 1.2l0.7 0.3-0.7-0.3z"/>
            <path id="Layer" class="s2" d="m6.9 0q-0.3 0-0.7 0v1.2l0.7 0.3v-1.5z"/>
            <path id="Layer" class="s2" d="m10.3 0.9q0 0 0 0 0 0 0 0z"/>
            <path id="Layer" class="s2" d="m10.5 1q0 0 0 0 0 0 0 0z"/>
            <path id="Layer" class="s2" d="m11 1.3q0 0 0 0 0 0 0 0z"/>
            <path id="Layer" class="s2" d="m11.2 1.5q0 0 0 0 0 0 0 0z"/>
            <path id="Layer" class="s2" d="m10.7 1.2q0 0 0.1 0-0.1 0-0.1 0z"/>
            <path id="Layer" class="s2" d="m10 0.7q0 0 0 0 0 0 0 0z"/>
            <path id="Layer" class="s2" d="m6.9 1.5l6.7 3.8q-0.2-1-0.7-1.9 0 0 0 0-0.2-0.4-0.5-0.7 0 0 0 0-0.1-0.1-0.2-0.2-0.2-0.2-0.4-0.4 0 0 0 0-0.1-0.1-0.2-0.2 0 0 0 0-0.2-0.2-0.4-0.4 0 0 0 0-0.1-0.1-0.2-0.2 0 0 0 0-0.1-0.1-0.3-0.1 0 0 0 0-0.1-0.1-0.2-0.2 0 0 0 0-0.1-0.1-0.2-0.1 0 0-0.1 0-0.1-0.1-0.2-0.2 0 0 0 0-0.2-0.1-0.5-0.2 0 0 0 0-0.1-0.1-0.3-0.1 0 0 0 0-0.1-0.1-0.2-0.1-0.1 0-0.1 0-0.1 0-0.2-0.1 0 0 0 0-0.2 0-0.3 0 0 0 0 0-0.2-0.1-0.3-0.1 0 0 0 0-0.2 0-0.3 0 0 0 0 0-0.1-0.1-0.3-0.1 0 0 0 0-0.1 0-0.3 0 0 0 0 0-0.2 0-0.3 0z"/>
            <path id="Layer" class="s2" d="m12.2 2.5z"/>
            <path id="Layer" class="s2" d="m7.2 0q0 0 0 0 0 0 0 0z"/>
            <path id="Layer" class="s2" d="m12.4 2.7q0 0 0 0 0 0 0 0z"/>
            <path id="Layer" class="s2" d="m7.5 0q0 0 0 0 0 0 0 0z"/>
            <path id="Layer" class="s2" d="m11.6 1.9q0 0 0 0 0 0 0 0z"/>
            <path id="Layer" class="s2" d="m8.1 0.1q0 0 0 0 0 0 0 0z"/>
            <path id="Layer" class="s2" d="m8.7 0.2q0 0 0 0 0 0 0 0z"/>
            <path id="Layer" class="s2" d="m12.9 3.4q0 0 0 0 0 0 0 0z"/>
            <path id="Layer" class="s2" d="m7.8 0.1q0 0 0 0 0 0 0 0z"/>
            <path id="Layer" class="s2" d="m9.2 0.4q0 0 0 0 0 0 0 0z"/>
            <path id="Layer" class="s2" d="m9.5 0.5q0 0 0 0 0 0 0 0z"/>
            <path id="Layer" class="s2" d="m11.8 2.1q0 0 0 0 0 0 0 0z"/>
            <path id="Layer" class="s2" d="m8.4 0.2q0 0 0 0 0 0 0 0z"/>
            <path id="Layer" class="s2" d="m8.9 0.3q0 0 0.1 0-0.1 0-0.1 0z"/>
            <path id="Layer" class="s2" d="m12.3 11.2q0 0.1-0.1 0.2 0.1-0.1 0.1-0.2z"/>
            <path id="Layer" class="s2" d="m13.8 6.9q0-0.1 0-0.2 0 0 0-0.1 0-0.1 0-0.2 0 0 0 0 0-0.2 0-0.5l-4.8 2.7v-1.6l2.4-1.4-3.8-2.1v9.1 1.2q0.9-0.1 1.8-0.4 0-0.1 0.1-0.1 0.3-0.1 0.7-0.3 0.1-0.1 0.2-0.1 0.1-0.1 0.2-0.2 0.6-0.3 1-0.7 0.1-0.1 0.1-0.1 0.1-0.1 0.2-0.2 0.1-0.1 0.1-0.1 0.1-0.1 0.2-0.2 0.1-0.1 0.1-0.2 0.1-0.1 0.1-0.2 0.1 0 0.2-0.1 0.1-0.2 0.2-0.3 0-0.1 0.1-0.3 0 0 0.1-0.1 0-0.1 0.1-0.2 0.1-0.2 0.2-0.4 0-0.2 0.1-0.3 0.2-0.6 0.3-1.2 0-0.1 0.1-0.3 0-0.3 0-0.7 0-0.1 0-0.2z"/>
            <path id="Layer" class="s2" d="m11.7 11.9q0 0-0.1 0.1 0.1-0.1 0.1-0.1z"/>
            <path id="Layer" class="s2" d="m12.6 10.9q-0.1 0.1-0.2 0.1 0.1 0 0.2-0.1z"/>
            <path id="Layer" class="s2" d="m13.1 10q-0.1 0.1-0.1 0.2 0-0.1 0.1-0.2z"/>
            <path id="Layer" class="s2" d="m12.9 10.3q-0.1 0.2-0.1 0.3 0-0.1 0.1-0.3z"/>
            <path id="Layer" class="s2" d="m13.8 7.8q-0.1 0.2-0.1 0.3 0-0.1 0.1-0.3z"/>
            <path id="Layer" class="s2" d="m6.9 12.3z"/>
            <path id="Layer" class="s2" d="m13.8 6.6q0 0.1 0 0.1 0 0 0-0.1z"/>
            <path id="Layer" class="s2" d="m10.4 12.9q-0.1 0-0.2 0.1 0.1-0.1 0.2-0.1z"/>
            <path id="Layer" class="s2" d="m9.5 13.3q-0.1 0-0.1 0.1 0-0.1 0.1-0.1z"/>
            <path id="Layer" class="s2" d="m13.8 6.4q0 0 0 0 0 0 0 0z"/>
            <path id="Layer" class="s1" d="m6.9 13.8q0.4 0 0.7 0-0.3 0-0.7 0z"/>
            <path id="Layer" class="s1" d="m7.6 12.7v-0.1l-0.7-0.3 0.7 0.4z"/>
            <path id="Layer" class="s1" d="m6.9 12.3v1.5c0.2 0 0.5 0 0.7 0v-1.2 0.1z"/>
        </g>
    </g>
</svg>
