<svg width="6" height="10" viewBox="0 0 6 10" fill="none" xmlns="http://www.w3.org/2000/svg">
<g id="fiat-icon">
<path d="M3.42407 9.53489V8.37189C3.97844 8.34839 4.50421 8.11943 4.89905 7.72958C5.29388 7.33974 5.52951 6.81691 5.56006 6.26289C5.56006 5.23689 4.98406 4.60988 3.56006 4.13088C2.54006 3.76688 2.12109 3.53089 2.12109 3.14989C2.12109 2.83089 2.3731 2.51189 3.1521 2.51189C3.74926 2.51484 4.33863 2.64686 4.88 2.89889L5.22803 1.61089C4.67884 1.37085 4.08733 1.24269 3.48804 1.23389V0.233887H2.31311V1.31689C1.03011 1.55689 0.286011 2.34389 0.286011 3.34689C0.286011 4.45189 1.16107 5.02288 2.44507 5.43288C3.33207 5.71788 3.71606 5.99189 3.71606 6.42389C3.71606 6.88089 3.24806 7.13088 2.56506 7.13088C1.87126 7.12353 1.18906 6.9522 0.574097 6.63088L0.213013 7.96489C0.850796 8.26941 1.54557 8.43635 2.25208 8.45489V9.53789L3.42407 9.53489Z" fill="#2B2829"/>
</g>
</svg>
