<svg>
<svg viewBox="0 0 68.164 62.883" id="casino-gold">
        <defs>
            <clipPath id="a"><rect width="68.164" height="62.883" fill="#ffe000"/></clipPath>
        </defs>
        <g transform="translate(-7438 -4513.117)">
            <g transform="translate(7438 4513.117)">
                <g transform="translate(0 0)" clip-path="url(#a)">
                    <path d="M30.623,18.094a2.7,2.7,0,1,1-2.7,2.7,2.7,2.7,0,0,1,2.7-2.7m0-7.191a2.051,2.051,0,1,1-2.05,2.048,2.052,2.052,0,0,1,2.05-2.048m0-6.157a1.666,1.666,0,1,1-1.667,1.665,1.657,1.657,0,0,1,1.667-1.665m0,24.9a1.666,1.666,0,1,1,1.662-1.667,1.668,1.668,0,0,1-1.662,1.667m.008,3.015a4.84,4.84,0,0,0,3.987-1.832,3.569,3.569,0,0,0,.3-3.44,1.907,1.907,0,0,1,.457-1.977,4.6,4.6,0,0,1,4.509-1.086,2.515,2.515,0,0,1,2.044,1.784,3.269,3.269,0,0,1-.853,3.1c-.977.956-3.291,1.094-3.738-.484-.413-1.474,1-2.05,1.593-1.47a2.8,2.8,0,0,1,.574,1.589c.078.478,1.65-1.289.229-2.57a2.389,2.389,0,0,0-3.612,2.8c.532,1.876,3.763,2.985,5.786,1.082a4.264,4.264,0,0,0,.713.088c1.891,0,2.62-1.644,3.075-3.312a4.157,4.157,0,0,1,1.314-2.562,3.272,3.272,0,0,1,2.535-.566,2.5,2.5,0,0,1,2.235,1.4c.507,1.352-.317,3.96-2.924,3.342-1.874-.438-1.614-3.046.222-2.723a1.62,1.62,0,0,1,1.346,1.174c.1.195.407-.5.153-1.174a2.037,2.037,0,0,0-3.268-.488,2.443,2.443,0,0,0-.635,2.428,2.6,2.6,0,0,0,1.958,1.935c3.562.836,5.377-2.182,4.335-4.943a3.185,3.185,0,0,0-.721-1.086,2.392,2.392,0,0,0,1.117-.916c.457-.719,1.13-2.742-2.528-6.008a3.452,3.452,0,0,1-.47-5.075c2.281-2.729,6.021-1.178,6.1,1.122.082,2.614-2.147,3.069-3.136,2.553-1.155-.6-1.27-1.818-.671-2.149a4.487,4.487,0,0,1,2.128.019c.342.069.088-.317-.172-.56a2.463,2.463,0,0,0-2.585-.319,2.545,2.545,0,0,0,.432,4.373c2.794,1.455,5.765-.874,5.662-3.994a3.439,3.439,0,0,0-1.327-2.507,13.5,13.5,0,0,0-2.256-3.528,1.123,1.123,0,0,0,.4-.767L50.658,3.539l-.27.268a8.291,8.291,0,0,0-4.937-.218C40.633,4.826,32.386,5.935,30.631,0c-1.753,5.935-10,4.826-14.815,3.589a8.306,8.306,0,0,0-4.941.218l-.27-.268L6.328,5.92a1.113,1.113,0,0,0,.4.767A13.409,13.409,0,0,0,4.47,10.216a3.438,3.438,0,0,0-1.321,2.507c-.1,3.119,2.868,5.449,5.662,3.994a2.543,2.543,0,0,0,.428-4.373,2.47,2.47,0,0,0-2.587.319c-.254.243-.512.629-.168.56A4.478,4.478,0,0,1,8.611,13.2c.606.331.491,1.545-.667,2.149-.992.516-3.222.061-3.132-2.553.073-2.3,3.813-3.851,6.092-1.122a3.448,3.448,0,0,1-.47,5.075c-3.656,3.266-2.987,5.289-2.528,6.008a2.417,2.417,0,0,0,1.119.916,3.045,3.045,0,0,0-.717,1.086c-1.046,2.761.765,5.78,4.327,4.943A2.6,2.6,0,0,0,14.6,27.771a2.446,2.446,0,0,0-.631-2.428,2.04,2.04,0,0,0-3.272.488c-.256.671.052,1.369.149,1.174a1.623,1.623,0,0,1,1.348-1.174c1.832-.323,2.092,2.285.224,2.723-2.61.618-3.44-1.989-2.924-3.342a2.5,2.5,0,0,1,2.235-1.4,3.257,3.257,0,0,1,2.528.566,4.128,4.128,0,0,1,1.317,2.562c.455,1.669,1.184,3.312,3.08,3.312a4.29,4.29,0,0,0,.713-.088c2.023,1.9,5.254.795,5.786-1.082a2.39,2.39,0,0,0-3.612-2.8c-1.426,1.281.147,3.048.226,2.57a2.756,2.756,0,0,1,.577-1.589c.593-.581,2.006,0,1.589,1.47-.444,1.579-2.757,1.44-3.736.484a3.29,3.29,0,0,1-.855-3.1,2.518,2.518,0,0,1,2.048-1.784,4.6,4.6,0,0,1,4.507,1.086,1.906,1.906,0,0,1,.455,1.977,3.574,3.574,0,0,0,.3,3.44,4.845,4.845,0,0,0,3.985,1.832" transform="translate(3.45 0)" fill="#ffe000"/>
                    <path d="M7.521,17.866s5.757-1.644,7.82,2.046c1.962,3.5-3.629,3.337-3.629,3.337,3.26,1.47,6.189-1.432,6.189-1.432-2.465-8.526-10.379-3.952-10.379-3.952" transform="translate(8.246 18.244)" fill="#ffe000"/>
                    <path d="M30.3,17.757s-.078,4.115-3.44,5.34c0,0,4.124-3.786.275-4.929-4.052-1.2-7.035,3.989-7.035,3.989s2.486-8.8,10.2-4.4" transform="translate(22.033 18.119)" fill="#ffe000"/>
                    <path d="M66.571,18.426c-1.444,6.53-3.723,1.524-3.308-2.18L61.4,18.862s-2.071-5,2.69-9.8c0,0,3.931,2.832,2.482,9.36M53.95,28.657a7.159,7.159,0,0,1-3.1,5.662C45.82,37.487,40.7,33.233,40.7,33.233c1.658-9.578,10.352-7.625,12.836-6.319S57.263,24.3,57.263,24.3c.2,5.012-3.312,4.354-3.312,4.354M43.705,49.407a6.426,6.426,0,0,1-4.528-1.671c-1.168,2.029-2.818,2.608-5.1,2.608s-3.927-.579-5.094-2.608a6.418,6.418,0,0,1-4.526,1.671c-4.088-.239-8.513-9.149,4.157-9.568,0,0,.692-3.8,5.463-3.8s5.453,3.8,5.453,3.8c12.671.419,8.26,9.329,4.172,9.568M17.318,34.319a7.159,7.159,0,0,1-3.1-5.662S10.7,29.315,10.9,24.3c0,0,1.245,3.918,3.727,2.612s11.178-3.26,12.832,6.319c0,0-5.119,4.254-10.142,1.086m16.756.254c-2.262,0-4.514,1.625-3.581.407.778-1.027,2.824-1.472,3.581-1.472s2.8.444,3.576,1.472c.933,1.218-1.319-.407-3.576-.407m-4.417-5.7c1.082-.658,2.4,1.308,2.4,1.308s.778-1.47,2.019-1.47,2.019,1.47,2.019,1.47,1.323-1.966,2.407-1.308c1.472.9.157,3.675-4.425,3.675s-5.9-2.776-4.423-3.675M6.767,18.862,4.9,16.246c.413,3.7-1.868,8.71-3.312,2.18s2.484-9.36,2.484-9.36c4.763,4.792,2.692,9.8,2.692,9.8M64.088,6.892a12.362,12.362,0,0,0-6.21,8.486,5.3,5.3,0,0,0,1.243,5.44s-4.507,4.256-8.277,3.484c-6.417-1.3-6.417,4.354-11.8.872a5.962,5.962,0,0,1-4.966,2.163,5.957,5.957,0,0,1-4.966-2.163c-5.384,3.482-5.384-2.176-11.8-.872-3.767.771-8.274-3.484-8.274-3.484a5.293,5.293,0,0,0,1.235-5.44,12.366,12.366,0,0,0-6.2-8.486A12.873,12.873,0,0,0,.142,18.213c1.166,8.1,6,3.266,6,3.266s-3.312,4.566-1.451,9.578,3.933,4.128,2.9,6.964S8,44.22,8,44.22c.358-2.258,2.161-2.985,3.968-2.985,3.34,0,5.88-4.409,5.88-4.409,0,3.973-3.327,3.973-3.327,7.725a6.385,6.385,0,0,0,4.864,6.31c.824,2.61,4.136,4.465,4.136,4.465L23.836,52c2.174.874,7.759,1.421,10.245,1.421S42.152,52.872,44.326,52l.31,3.329s3.3-1.855,4.132-4.465a6.38,6.38,0,0,0,4.853-6.31c0-3.753-3.327-3.753-3.327-7.725,0,0,2.547,4.409,5.882,4.409,1.811,0,3.614.727,3.975,2.985,0,0,1.457-3.371.421-6.2s1.036-1.962,2.9-6.964-1.449-9.578-1.449-9.578,4.836,4.836,6-3.266A12.878,12.878,0,0,0,64.088,6.892" transform="translate(0 7.556)" fill="#ffe000"/>
                    <path d="M26.956,24.836s.006-3.272-4.4-3.272-4.411,3.272-4.411,3.272C8.5,24.6,9.306,32.151,13.424,32.1a5.2,5.2,0,0,0,3.7-1.511A2.668,2.668,0,0,1,17,28.394a.818.818,0,0,1,.067-1.633.826.826,0,0,1,.836.82c0,.027-.01.042-.01.071a.754.754,0,0,1-.094.354,2.829,2.829,0,0,0,.631,3.27,5.565,5.565,0,0,0,4.111,1.407,5.556,5.556,0,0,0,4.1-1.407,2.816,2.816,0,0,0,.633-3.27.464.464,0,0,1-.031-.078.159.159,0,0,1-.023-.046.719.719,0,0,1-.04-.193.59.59,0,0,1-.023-.109.834.834,0,0,1,1.669,0,.816.816,0,0,1-.753.811,2.68,2.68,0,0,1-.119,2.195,5.184,5.184,0,0,0,3.7,1.511c4.122.052,4.933-7.5-4.7-7.262" transform="translate(11.53 23.643)" fill="#ffe000"/>
                </g>
            </g>
        </g>
    </svg>
    <svg viewBox="0 0 74.508 65.14" id="messenger">
        <g transform="translate(-1068.5 -271.696)">
            <path
                d="M-1539.189,1703.727a.905.905,0,0,1-.032-.953c.03-.051,2.872-5.146,1.646-9.959-6.629-4.395-10.425-10.927-10.425-17.971,0-7.843,4.761-14.781,12.018-18.937q-.211.379-.41.763a23.115,23.115,0,0,0-2.589,10.615,23.117,23.117,0,0,0,2.589,10.615,26.923,26.923,0,0,0,6.887,8.467,34.416,34.416,0,0,0,21.977,7.588c1,0,2.007-.043,3-.122a31.789,31.789,0,0,1-15.681,4.022,33.629,33.629,0,0,1-4.535-.3c-4.425,2.844-10.267,6.215-13.585,6.583a.77.77,0,0,1-.1.006A.912.912,0,0,1-1539.189,1703.727Zm53-7.778c-2.88-.32-7.524-2.507-13.814-6.5a36.078,36.078,0,0,1-4.108.237c-16.334,0-29.623-11.146-29.623-24.844s13.288-24.839,29.623-24.839,29.623,11.143,29.623,24.839c0,7.429-3.859,14.342-10.617,19.071-.642,3.872,1.58,7.924,1.6,7.967a2.729,2.729,0,0,1-.1,2.856,2.74,2.74,0,0,1-2.29,1.232A2.717,2.717,0,0,1-1486.193,1695.949Z"
                transform="translate(2617 -1367.804)" fill="#ffe000" />
            <path
                d="M-1538.426,1704.64a1.407,1.407,0,0,1-1.182-.64,1.4,1.4,0,0,1-.048-1.474c.027-.049,2.7-4.848,1.641-9.4-6.667-4.485-10.485-11.137-10.485-18.279a19.8,19.8,0,0,1,.879-5.83,21.211,21.211,0,0,1,2.489-5.293,25.918,25.918,0,0,1,8.9-8.248l1.556-.891-.871,1.568c-.145.261-.277.506-.4.751a22.614,22.614,0,0,0-2.533,10.385,22.621,22.621,0,0,0,2.535,10.387,26.429,26.429,0,0,0,6.76,8.31,33.916,33.916,0,0,0,21.658,7.473c.958,0,1.955-.041,2.965-.121l2.244-.178-1.958,1.111a32.273,32.273,0,0,1-15.927,4.087,34.2,34.2,0,0,1-4.42-.284c-4.383,2.808-10.247,6.181-13.642,6.56A1.261,1.261,0,0,1-1538.426,1704.64Zm1.183-47.37a24.437,24.437,0,0,0-7.05,6.995,20.209,20.209,0,0,0-2.372,5.043,18.8,18.8,0,0,0-.835,5.536c0,6.859,3.718,13.257,10.2,17.554l.161.107.047.187a13.154,13.154,0,0,1-.358,7.032,17.769,17.769,0,0,1-1.34,3.3.4.4,0,0,0,.016.425.412.412,0,0,0,.347.19l.034,0h.01c2.566-.285,7.189-2.535,13.37-6.507l.155-.1.183.025a33.156,33.156,0,0,0,4.468.3,31.671,31.671,0,0,0,13.4-2.907q-.365.007-.724.007a34.917,34.917,0,0,1-22.3-7.7,27.42,27.42,0,0,1-7.013-8.625,23.611,23.611,0,0,1-2.644-10.842A23.515,23.515,0,0,1-1537.243,1657.27Zm51.349,39.195a3.176,3.176,0,0,1-.354-.018c-2.931-.326-7.6-2.507-13.878-6.484a36.631,36.631,0,0,1-3.989.22c-16.61,0-30.123-11.369-30.123-25.344s13.513-25.339,30.123-25.339,30.123,11.367,30.123,25.339a21.94,21.94,0,0,1-2.838,10.792,26.1,26.1,0,0,1-7.817,8.565c-.493,3.56,1.475,7.248,1.579,7.438a3.227,3.227,0,0,1-.117,3.373A3.241,3.241,0,0,1-1485.894,1696.465Zm-13.994-7.536.149.095c6.224,3.954,10.8,6.117,13.6,6.428a2.2,2.2,0,0,0,.244.012,2.242,2.242,0,0,0,1.873-1.008,2.23,2.23,0,0,0,.08-2.333l0-.009c-.1-.175-2.316-4.313-1.657-8.287l.034-.207.172-.12a25.175,25.175,0,0,0,7.693-8.356,20.952,20.952,0,0,0,2.711-10.3c0-13.421-13.064-24.339-29.123-24.339s-29.123,10.918-29.123,24.339,13.064,24.344,29.123,24.344a35.613,35.613,0,0,0,4.051-.233Z"
                transform="translate(2617 -1367.804)" fill="rgba(0,0,0,0)" />
        </g>
    </svg>
    <svg viewBox="0 0 80.913 64" id="casino">
        <path
            d="M-217.848,619.431c6.163,4.19,14.344,6.5,23.035,6.5s16.873-2.307,23.036-6.5c6.248-4.247,9.689-9.922,9.689-15.979s-3.441-11.732-9.689-15.979c-6.163-4.189-14.344-6.5-23.036-6.5s-16.872,2.308-23.035,6.5c-6.248,4.247-9.689,9.922-9.689,15.979S-224.1,615.184-217.848,619.431Zm23.035,5.059c-.134,0-1.415-.025-1.43-.025l0-.549c.472.02.948.034,1.425.034s.949-.014,1.426-.034l0,.548C-193.4,624.465-194.673,624.49-194.813,624.49Zm-22.532-7.781,2.828-.525q.462.551.991,1.074l-2.294.8A19.766,19.766,0,0,1-217.345,616.709Zm1.51-6.158a9.378,9.378,0,0,1-.224-2.025c0-.288.014-.578.04-.862a9.5,9.5,0,0,1,.456-2.139,10.593,10.593,0,0,1,.963-2.082,12.843,12.843,0,0,1,1.486-2.006,15.824,15.824,0,0,1,1.587-1.525,18.779,18.779,0,0,1,2.278-1.631,21.853,21.853,0,0,1,2.308-1.226,25.254,25.254,0,0,1,2.845-1.106c.872-.28,1.776-.521,2.688-.716a29.577,29.577,0,0,1,3.173-.509.46.46,0,0,0,.053-.008c.1-.011.208-.02.313-.03v1.45a21.773,21.773,0,0,0-10.417,3.806c-2.986,2.2-4.63,5.066-4.63,8.057,0,3.275,1.925,6.331,5.418,8.6a23.478,23.478,0,0,0,12.685,3.432,23.473,23.473,0,0,0,12.685-3.432c3.494-2.274,5.418-5.33,5.418-8.6,0-2.991-1.644-5.852-4.629-8.057a21.783,21.783,0,0,0-10.417-3.806v-1.45l.171.017a29.789,29.789,0,0,1,3.189.492c.909.188,1.819.424,2.7.7a26.156,26.156,0,0,1,2.861,1.088,22.785,22.785,0,0,1,2.323,1.216,19.058,19.058,0,0,1,2.3,1.621,15.939,15.939,0,0,1,1.612,1.528,12.893,12.893,0,0,1,1.515,2.007,10.748,10.748,0,0,1,.993,2.1,9.642,9.642,0,0,1,.474,2.173c.029.3.043.6.043.9a9.2,9.2,0,0,1-.219,2,10.018,10.018,0,0,1-.785,2.243,12.121,12.121,0,0,1-1.406,2.211,15.305,15.305,0,0,1-2.007,2.061A19.385,19.385,0,0,1-181.3,619.3a23.723,23.723,0,0,1-3.141,1.421,27.785,27.785,0,0,1-4.633,1.269,30.932,30.932,0,0,1-3.834.463,32.282,32.282,0,0,1-4.009-.012,30.761,30.761,0,0,1-3.818-.485,27.674,27.674,0,0,1-4.6-1.29,23.763,23.763,0,0,1-3.086-1.417A19.242,19.242,0,0,1-211.7,617a15.053,15.053,0,0,1-1.976-2.045,11.919,11.919,0,0,1-1.381-2.18A9.869,9.869,0,0,1-215.835,610.551Zm21.022-10.256a2.726,2.726,0,0,0,.54-.056v2.426a.54.54,0,0,1-.54.54.54.54,0,0,1-.539-.54v-2.426A2.724,2.724,0,0,0-194.813,600.295Zm3.026-2.717q.749.089,1.472.218l-2.244,2.842c-.091-.031-.183-.059-.276-.086v-1.06A3.038,3.038,0,0,0-191.787,597.578ZM-211.477,608a7.784,7.784,0,0,1,2.112-5.14l9.444,1.142a2.7,2.7,0,0,0,.436,1.263l-11.539,5.191A6.958,6.958,0,0,1-211.477,608Zm10.6-9.868,2.482,3.143a3.665,3.665,0,0,0-1.229,1.314l-8.407-1.017A18.092,18.092,0,0,1-200.878,598.132Zm6.065,6.511a1.98,1.98,0,0,0,1.978-1.978v-.6c.077.029.152.059.226.091a2.331,2.331,0,0,1,1.446,1.389,1.067,1.067,0,0,1,.033.264,1.581,1.581,0,0,1-.654,1.157,4.059,4.059,0,0,1-1.6.758,6.1,6.1,0,0,1-2.863,0,4.059,4.059,0,0,1-1.6-.758,1.577,1.577,0,0,1-.654-1.157,1.109,1.109,0,0,1,.033-.267,2.335,2.335,0,0,1,1.446-1.386c.074-.033.149-.062.226-.091v.6A1.98,1.98,0,0,0-194.813,604.643Zm-3.572,1.7a5.339,5.339,0,0,0,.957.5l-5.167,10.521c-3.56-1.2-6.358-3.2-7.8-5.617Zm2.37.887a7.577,7.577,0,0,0,1.2.1,7.58,7.58,0,0,0,1.2-.1l5.183,10.554a25.032,25.032,0,0,1-6.386.809,25.018,25.018,0,0,1-6.385-.809Zm8.985,10.134-5.167-10.521a5.339,5.339,0,0,0,.957-.5l12.012,5.4C-180.672,614.17-183.47,616.167-187.03,617.368Zm8.429-6.912-11.539-5.191A2.707,2.707,0,0,0-189.7,604l9.444-1.142a7.784,7.784,0,0,1,2.112,5.14A6.958,6.958,0,0,1-178.6,610.456Zm-11.4-7.867a3.655,3.655,0,0,0-1.228-1.314l2.482-3.143a18.1,18.1,0,0,1,7.154,3.44Zm-6.789-2.036c-.094.026-.185.054-.276.085l-2.245-2.842q.723-.129,1.473-.218a3.038,3.038,0,0,0,1.048,1.914Zm22.978,17.5-2.288-.8q.528-.523.991-1.074l2.822.523A19.754,19.754,0,0,1-173.812,618.057Zm-18.137,5.77c.94-.081,1.87-.2,2.779-.36l.3.6c-1.01.144-2.035.254-3.075.323Zm11.094-3.134,1.43.722c-.869.388-1.773.739-2.705,1.057l-.715-.835C-182.158,621.347-181.492,621.032-180.855,620.693Zm-3.411,1.5.648.757a37.7,37.7,0,0,1-3.764.881l-.323-.647A28.87,28.87,0,0,0-184.266,622.189Zm8.869-2.974a26.308,26.308,0,0,1-2.4,1.411l-1.569-.792a20.191,20.191,0,0,0,2.052-1.477l2.1.734C-175.276,619.132-175.335,619.174-175.4,619.215Zm-33.373,1.478c.639.338,1.3.655,1.989.945l-.714.833c-.934-.317-1.838-.671-2.705-1.056Zm8.315,2.774c.917.158,1.847.279,2.779.358l-.005.564c-1.038-.07-2.066-.176-3.075-.322Zm-1.788.359a36.792,36.792,0,0,1-3.761-.884l.644-.752a28.862,28.862,0,0,0,3.44.989Zm-10.069-5.469a20.23,20.23,0,0,0,2.052,1.477l-1.571.793a26.109,26.109,0,0,1-2.585-1.534Zm41.173-2.9-3-.556q.358-.542.656-1.1l3.556-.028A14.667,14.667,0,0,1-171.139,615.457Zm1.98-3.126-3.672.029q.185-.5.321-1l3.893-.47A11.8,11.8,0,0,1-169.159,612.331Zm1-4.522a10.468,10.468,0,0,1-.122,1.592l-3.937.476a10.682,10.682,0,0,0,.089-1.351c0-.113,0-.227-.008-.341l3.971-.748C-168.161,607.561-168.158,607.685-168.158,607.809Zm-4.122-1.061q-.087-.519-.225-1.034l3.718-1.506a11,11,0,0,1,.471,1.794Zm-.686-2.4c-.144-.351-.308-.7-.489-1.041l3.149-2.05a13.466,13.466,0,0,1,.957,1.626Zm-1.227-2.277c-.233-.345-.487-.684-.757-1.016l2.7-2.113q.576.571,1.074,1.168Zm-1.716-2.093c-.222-.227-.456-.45-.7-.671l2.129-2.26q.6.444,1.149.91Zm-1.8-1.6q-.6-.465-1.251-.9l1.7-2.207q.819.45,1.582.948Zm-2.482-1.657q-.56-.321-1.153-.618l1.379-2.135q.717.3,1.4.635Zm-2.47-1.231q-.775-.333-1.585-.622l1.207-2.02q.871.27,1.712.578Zm-2.986-1.082c-.489-.147-.984-.281-1.481-.4l.717-2.028q.987.206,1.942.459Zm-2.9-.71c-.653-.128-1.316-.237-1.986-.323l.226-2.005q1.248.133,2.464.34Zm-3.4-.617a.708.708,0,0,0-.213-.162,2.761,2.761,0,0,0,.128-.858,2.682,2.682,0,0,0-.146-.851c.147.009.292.021.438.032Zm-1.523-1.01a1.333,1.333,0,0,1-.412.977.721.721,0,0,0-.168.787.72.72,0,0,0,.667.449h.187v2.877a1.613,1.613,0,0,1-.748,1.362.667.667,0,0,0-.06.045h0a1.289,1.289,0,0,1-1.619,0h0a.667.667,0,0,0-.06-.045,1.613,1.613,0,0,1-.748-1.362v-2.877h.187a.72.72,0,0,0,.667-.45.719.719,0,0,0-.168-.787,1.33,1.33,0,0,1-.412-.966,1.346,1.346,0,0,1,1.4-1.344A1.358,1.358,0,0,1-193.468,592.073Zm-4,.848a.708.708,0,0,0-.213.162l-.208-1.843c.144-.011.289-.02.433-.029a2.8,2.8,0,0,0-.141.872A2.759,2.759,0,0,0-197.467,592.921Zm-1.854-1.551.226,2.008c-.666.086-1.33.193-1.987.321l-.7-1.989C-200.972,591.571-200.148,591.459-199.321,591.37Zm-3.894.611.717,2.027q-.748.182-1.482.4l-1.177-1.97C-204.52,592.27-203.871,592.118-203.215,591.981Zm-3.372.87,1.206,2.017q-.81.289-1.584.625l-1.333-2.063C-207.735,593.222-207.163,593.03-206.587,592.851Zm-3.074,1.119,1.379,2.134c-.4.2-.782.4-1.155.617l-1.629-2.117Q-210.383,594.274-209.661,593.97Zm-2.7,1.306,1.7,2.2c-.434.288-.851.589-1.249.9l-2.033-2.159C-213.445,595.893-212.913,595.578-212.364,595.276Zm-2.782,1.772,2.127,2.26q-.358.327-.7.672l-2.578-2.021C-215.93,597.648-215.546,597.344-215.146,597.048Zm-2.222,1.9,2.691,2.109q-.406.5-.755,1.019l-3.012-1.962C-218.111,599.714-217.75,599.325-217.368,598.945Zm-1.949,2.314,3.145,2.048q-.27.513-.485,1.043l-3.619-1.466A13.714,13.714,0,0,1-219.317,601.259Zm-1.52,2.95,3.715,1.505c-.091.34-.164.686-.223,1.034l-3.962-.746A10.941,10.941,0,0,1-220.837,604.209Zm3.348,3.976c0,.114-.008.228-.008.341a10.559,10.559,0,0,0,.09,1.351l-3.938-.476a10.508,10.508,0,0,1-.122-1.592c0-.124,0-.248.01-.372Zm.374,3.176c.09.335.2.669.321,1l-3.675-.029a11.655,11.655,0,0,1-.538-1.44Zm.974,2.442c.2.371.416.738.656,1.1l-3.009.558a14.622,14.622,0,0,1-1.21-1.684Zm21.328-31.388c11.385,0,21.368,4.111,26.842,10.24-6.5-5.114-16.319-8.216-26.842-8.216s-20.343,3.1-26.841,8.216C-216.18,586.526-206.2,582.415-194.813,582.415Zm-31.215,19.614a10.322,10.322,0,0,1,2.936-6.172c6.021-6.141,16.692-9.98,28.279-9.98s22.259,3.839,28.279,9.98a10.318,10.318,0,0,1,2.937,6.172q.07.705.071,1.423a14.484,14.484,0,0,1-.714,4.471l-.169-2.548a.72.72,0,0,0-.766-.67.719.719,0,0,0-.67.765l.175,2.619a.718.718,0,0,0,.717.671.383.383,0,0,0,.048,0,.712.712,0,0,0,.444-.2,19.179,19.179,0,0,1-5.341,7.514,13.221,13.221,0,0,0,3.083-8.267c0-9.688-11.69-17.61-26.65-18.094a2.727,2.727,0,0,0-1.337-.413,2.765,2.765,0,0,0-1.569.415c-.828.026-1.663.075-2.483.15a41.191,41.191,0,0,0-4.132.58c-1.218.234-2.423.525-3.577.864-1.083.316-2.156.686-3.189,1.1a31.164,31.164,0,0,0-2.851,1.307,26.691,26.691,0,0,0-2.965,1.792,22.225,22.225,0,0,0-2.439,1.96,18.547,18.547,0,0,0-2.167,2.382,14.886,14.886,0,0,0-1.83,3.138,12.3,12.3,0,0,0-1,4.819,12.047,12.047,0,0,0,.24,2.386,13.925,13.925,0,0,0,2.772,5.82,19.142,19.142,0,0,1-5.271-7.454.708.708,0,0,0,.444.2l.048,0a.718.718,0,0,0,.717-.671l.175-2.619a.719.719,0,0,0-.67-.765.72.72,0,0,0-.766.669l-.169,2.549a14.484,14.484,0,0,1-.714-4.471Q-226.1,602.735-226.028,602.029Z"
            transform="translate(235.269 -578.144)" fill="#ffe000" />
        <path
            d="M-154.356,604.373c0-.061-.007-.382-.007-.382-.151-6.924-4.383-13.4-11.962-18.261-7.621-4.892-17.737-7.586-28.488-7.586s-20.867,2.694-28.487,7.586c-7.579,4.865-11.811,11.337-11.962,18.261,0,0-.007.321-.007.382a17.559,17.559,0,0,0,.422,3.821,25.638,25.638,0,0,0,2.987,7.779c.96,7.153,5.23,13.754,12.04,18.6a43.351,43.351,0,0,0,25.007,7.57,43.351,43.351,0,0,0,25.008-7.57c6.81-4.847,11.08-11.448,12.039-18.6a25.586,25.586,0,0,0,2.987-7.779A17.56,17.56,0,0,0-154.356,604.373Zm-40.457-24.79c21.421,0,38.862,11.023,39.015,24.611a20.213,20.213,0,0,1-.359,3.553c-2.6,12.079-18.942,21.417-38.656,21.417s-36.056-9.338-38.655-21.417a20.118,20.118,0,0,1-.359-3.553C-233.674,590.606-216.233,579.583-194.813,579.583Zm32.007,40.86a36.44,36.44,0,0,1-4.357,4.088,44.381,44.381,0,0,1-27.65,9.393,44.383,44.383,0,0,1-27.65-9.393,36.5,36.5,0,0,1-4.356-4.088,35.118,35.118,0,0,0,3.519,2.574c7.62,4.891,17.737,7.585,28.487,7.585s20.867-2.694,28.487-7.585A35.134,35.134,0,0,0-162.806,620.443Zm-7.833,12.959a41.906,41.906,0,0,1-24.174,7.3,41.9,41.9,0,0,1-24.173-7.3,27.371,27.371,0,0,1-10.7-14.166,36.612,36.612,0,0,0,6.324,6.419,45.825,45.825,0,0,0,28.547,9.707,45.825,45.825,0,0,0,28.548-9.707,36.647,36.647,0,0,0,6.324-6.419A27.376,27.376,0,0,1-170.639,633.4Z"
            transform="translate(235.269 -578.144)" fill="#ffe000" />
        <path
            d="M-214.293,593.122a.718.718,0,0,0,.663.44.718.718,0,0,0,.278-.056.719.719,0,0,0,.384-.942l-.719-1.708a.72.72,0,0,0-.942-.384.72.72,0,0,0-.384.942Z"
            transform="translate(235.269 -578.144)" fill="#ffe000" />
        <path
            d="M-176.274,593.506a.727.727,0,0,0,.279.056.718.718,0,0,0,.663-.44l.719-1.708a.718.718,0,0,0-.383-.942.719.719,0,0,0-.942.383l-.72,1.708A.72.72,0,0,0-176.274,593.506Z"
            transform="translate(235.269 -578.144)" fill="#ffe000" />
        <path
            d="M-196.071,588.258h2.517a.719.719,0,0,0,.719-.719.719.719,0,0,0-.719-.72h-2.517a.719.719,0,0,0-.719.72A.719.719,0,0,0-196.071,588.258Z"
            transform="translate(235.269 -578.144)" fill="#ffe000" />
    </svg>
    <svg viewBox="0 0 64 64" id="dafabet-connect">
        <g transform="translate(3.75)">
            <path
                d="M-194.273,782.959a32.231,32.231,0,0,0-24.5,11.566v-2.066a1.874,1.874,0,0,0-1.875-1.875,1.874,1.874,0,0,0-1.875,1.875v7.965c0,1.789,2.311,2.046,1.875,1.875.038,0,.077,0,.115,0l7.5-.465a1.874,1.874,0,0,0,1.756-1.986,1.89,1.89,0,0,0-1.987-1.756l-3.8.236a28.5,28.5,0,0,1,22.79-11.615,28.37,28.37,0,0,1,28.25,28.25,1.874,1.874,0,0,0,1.875,1.875,1.874,1.874,0,0,0,1.875-1.875A32.125,32.125,0,0,0-194.273,782.959Z"
                transform="translate(222.523 -782.959)" fill="#ffe000" />
        </g>
        <g transform="translate(0 30.125)">
            <path
                d="M-168.014,827.622l-7.5.466a1.875,1.875,0,0,0-1.756,1.986,1.9,1.9,0,0,0,1.987,1.756l3.8-.236a28.5,28.5,0,0,1-22.789,11.615,28.37,28.37,0,0,1-28.25-28.25,1.874,1.874,0,0,0-1.875-1.875,1.874,1.874,0,0,0-1.875,1.875,32.125,32.125,0,0,0,32,32,32.231,32.231,0,0,0,24.5-11.566v2.066a1.874,1.874,0,0,0,1.875,1.875,1.874,1.874,0,0,0,1.875-1.875v-7.965A1.961,1.961,0,0,0-168.014,827.622Z"
                transform="translate(226.273 -813.084)" fill="#ffe000" />
        </g>
        <path
            d="M-215.765,816.493c14.371-20.479,37.031-23.51,42.027-11.406,5.331,13.91-12.494,29.309-32.138,26.536-.169-.074-5.454-.332-4.7-3.585C-209.158,814.673-199.827,806-199.827,806l7.478-2.55s-8.44,8.167-12.115,23.169c16.56,2.991,29.268-11.692,26.616-19.523C-178.466,803.848-191.959,792.834-215.765,816.493Z"
            transform="translate(226.273 -782.959)" fill="#ffe000" fill-rule="evenodd" />
    </svg>
    <svg viewBox="0 0 69.621 64.015" id="owsports">
        <g transform="translate(0)">
            <g transform="translate(0)">
                <path
                    d="M65.784,22.025c.053-.165-10.8-26.573-42.291-19.784-6,1.272-25.148,10-23.378,33.391.383,15.1,19.5,34.139,44.943,26.732,27.01-9.241,21.408-32.609,21.408-32.609s2.5,19.222-15.946,27.889c14.72-9,16.46-20.846,14.074-31.375.851,8.788-2.933,12.331-2.933,12.331S60.89,49.831,43.756,56.578c-7.487,2.416-16.337,1.627-22.019-1.333C.639,45.038,6.865,25.087,6.865,25.087S10.325,8.77,30,4.377C46.079,1.306,60.478,12.462,65.784,22.025Zm-53.5-15A38.978,38.978,0,0,1,49.6,3.849c2.182,1.341,14.146,6.371,20.02,25.675.083.076-2.725-18.07-19.853-26.437C44.011.24,26.036-3.611,12.282,7.027Z"
                    transform="translate(0 0)" fill="#ffe000" fill-rule="evenodd" />
                <path
                    d="M0,6.79C5.307-.716,13.676-1.827,15.521,2.609c1.969,5.1-4.614,10.743-11.868,9.726-.063-.027-2.015-.121-1.737-1.314A14.017,14.017,0,0,1,5.886,2.945l2.762-.934A18.752,18.752,0,0,0,4.173,10.5C10.289,11.6,14.982,6.217,14,3.347,13.775,2.155,8.792-1.882,0,6.79Z"
                    transform="translate(14.983 14.597)" fill="#ffe000" fill-rule="evenodd" />
                <path
                    d="M12.406,43.112h0a2.176,2.176,0,0,1-.867-.189L11.5,42.91c-.868-.3-3.816-1.339-5.3-1.863a2.289,2.289,0,0,1-1.259-1A1.871,1.871,0,0,1,4.7,39.4c-.017-.069-1.673-6.969-1.987-8.345A2.361,2.361,0,0,1,2.837,29.5a1.646,1.646,0,0,1,.363-.516c.03-.033,3.034-3.325,3.877-4.367a1.531,1.531,0,0,1,1.247-.585,2.483,2.483,0,0,1,1,.229l4.789,1.617a2.112,2.112,0,0,1,1.327.934,1.463,1.463,0,0,1,.2.619c.08.318,1.958,7.81,2.15,8.9a1.739,1.739,0,0,1-.212,1.175,1.873,1.873,0,0,1-.342.442c-.027.036-2.723,3.594-3.584,4.593A1.588,1.588,0,0,1,12.406,43.112ZM31,39.21h0a1.056,1.056,0,0,1-.407-.071c-.073-.017-7.338-1.75-8.731-2.038a1.83,1.83,0,0,1-1.281-.87,1.687,1.687,0,0,1-.218-.65l0-.017c-.2-.767-1.951-7.525-2.211-8.587a1.656,1.656,0,0,1,.255-1.346,2.119,2.119,0,0,1,.462-.5c.052-.051,5.215-5.131,6.222-6.21a1.976,1.976,0,0,1,1.487-.672,2.065,2.065,0,0,1,.793.154l8.535,2.038a1.935,1.935,0,0,1,1.124.894,2.1,2.1,0,0,1,.244.627c.014.064,1.421,6.388,1.922,8.054a2.39,2.39,0,0,1-.055,1.794,1.439,1.439,0,0,1-.434.534c-.055.054-5.5,5.417-6.417,6.275A1.884,1.884,0,0,1,31,39.21ZM.9,27.282h0a.981.981,0,0,1-.532-.176c-.442-.287-.359-1.092-.358-1.1s.049-1.083.28-2.587A24.192,24.192,0,0,1,1.7,18.082a30.686,30.686,0,0,1,5.082-7.893,1.343,1.343,0,0,1,.947-.527.757.757,0,0,1,.519.2c.023.025.572.613,1.01,1.035.25.24.035,1.027.033,1.035L6.555,21.478c-.048.052-4.816,5.194-4.984,5.434A.85.85,0,0,1,.9,27.282ZM37.01,17.888h0a3.1,3.1,0,0,1-.973-.162c-.072-.017-7.253-1.748-8.47-2.005a2.163,2.163,0,0,1-1.317-.773,1.54,1.54,0,0,1-.28-.554c-.013-.04-1.357-4.017-1.857-5.272a1.65,1.65,0,0,1-.01-1.4,1.265,1.265,0,0,1,.368-.448l0,0c.165-.137,4.05-3.353,4.982-4.106a1.861,1.861,0,0,1,1.178-.455,1.387,1.387,0,0,1,.613.132L39.62,4.885a1.811,1.811,0,0,1,1.307.845,1.89,1.89,0,0,1,.257.675c.014.041,1.451,4.215,1.922,5.531a1.634,1.634,0,0,1-.1,1.467,1.536,1.536,0,0,1-.455.474c-.03.025-3.05,2.576-4.267,3.591A1.933,1.933,0,0,1,37.01,17.888ZM11.488,9.314a.842.842,0,0,1-.536-.16s-.275-.263-.945-1A.752.752,0,0,1,9.792,7.6a1.124,1.124,0,0,1,.347-.676A15.58,15.58,0,0,1,11.928,5.3a23.041,23.041,0,0,1,2.194-1.541,24.228,24.228,0,0,1,3.021-1.588,23.675,23.675,0,0,1,3.33-1.154c.964-.26,1.983-.48,3.03-.654A29.135,29.135,0,0,1,26.557,0a.774.774,0,0,1,.88.777.969.969,0,0,1-.391.809l-5.44,4.981c-.086.024-8.8,2.42-9.708,2.685A1.472,1.472,0,0,1,11.488,9.314Z"
                    transform="translate(6.834 4.828)" fill="#ffe000" />
            </g>
        </g>
    </svg>
    <svg viewBox="0 0 67.119 64" id="dafasports">
        <path
            d="M109.726,157.5c19.24,3.114,34-12.163,30.92-20.306-.72-3.375-16.388-14.834-44.05,9.781,16.691-21.306,43.017-24.462,48.824-11.866,6.2,14.47-14.514,30.484-37.332,27.6a26.69,26.69,0,0,1-4.572-1c-.567-.4,1.58-.858,2.179-1.535a21.257,21.257,0,0,1,1.85-1.7l1.08-.853Z"
            transform="translate(-88.055 -115.775)" fill="#ffe000" fill-rule="evenodd" />
        <path
            d="M207.6,206.976a.7.7,0,0,0-.092-.137,1.364,1.364,0,0,1,.035-.278,1.5,1.5,0,0,0,.067-.506.612.612,0,0,0-.262-.436,4.235,4.235,0,0,0,.042-.451,3.606,3.606,0,0,0,0-.361l.029-.019c.027-.018.053-.036.078-.056.009-.036.015-.072.021-.108a2.273,2.273,0,0,0-.078-.89c-.121-.471-.292-.924-.393-1.4a1.391,1.391,0,0,0-.546-.946l-.05-.033a1.707,1.707,0,0,0-.452-.194,2.133,2.133,0,0,0-.436-.011,5.323,5.323,0,0,0-.691.1,8.343,8.343,0,0,1-1.073.152l-.134.009c-.064-.162-.137-.322-.2-.483s-.118-.3-.176-.45a1.918,1.918,0,0,0,.136-.724c.165-.1.143-.31.117-.509s-.037-.444-.209-.513a1.565,1.565,0,0,0-.522-1.084c-.24-.183-.55-.238-.8-.414a2.489,2.489,0,0,0-.468-.338.514.514,0,0,0-.089-.027.259.259,0,0,1,.028.041.528.528,0,0,1-.095.508.436.436,0,0,1-.111-.047c-.05-.03-.1-.063-.147-.1l-.055-.038c0,.013,0,.025,0,.038a1,1,0,0,1-.18.484c-.109.146-.248.235-.283.425a2.369,2.369,0,0,0,.01.6,4.092,4.092,0,0,0,.07.517c-.13.117-.033.366.01.525a.906.906,0,0,0,.139.387.326.326,0,0,0,.215.094,2.019,2.019,0,0,0,.136.334.9.9,0,0,0,.244.27c.014.154.028.307.031.462,0,.114,0,.23-.009.347-.239.06-.477.126-.713.192a3.906,3.906,0,0,0-1.409.637,14.693,14.693,0,0,0-1.182,1.117l-.046.066c0,.022,0,.043,0,.064s0,.025,0,.038c-.076.076-.148.157-.223.235a1.313,1.313,0,0,1-.362.291,1.836,1.836,0,0,1-.6.126,7.914,7.914,0,0,1-1.251.039c-.37-.018-.73-.092-1.1-.138a4.425,4.425,0,0,1-.431-.152c-.109-.045-.209-.1-.313-.156a.96.96,0,0,0-.216-.063,1.149,1.149,0,0,1-.321-.174.714.714,0,0,0-.212-.123c-.057-.009-.1,0-.105.056a1.1,1.1,0,0,0-.143-.077c-.063-.027-.172-.048-.153.055l-.054-.016c-.145-.034-.126.1-.065.191-.041,0-.072.024-.072.094s.1.165.142.21a1.171,1.171,0,0,0,.259.166,3.116,3.116,0,0,0,.426.242.682.682,0,0,0,.067.023.662.662,0,0,0,.094.019.2.2,0,0,1,.082.044.079.079,0,0,1,.023.075c-.024.088-.174.061-.238.058a.391.391,0,0,0-.294.06c-.1.092-.107.3.051.333a.943.943,0,0,0,.212-.02,1.657,1.657,0,0,1,.255.029.952.952,0,0,0,.428-.09,4.413,4.413,0,0,1,.481-.133,1.209,1.209,0,0,1,.2-.021c.439.139.9.241,1.335.367q.387.111.774.218c.164.045.328.1.494.136l.1.021c.055,0,.11,0,.166-.01a2.641,2.641,0,0,0,1.273-.515l.048.034.041.027c.032-.009.064-.018.1-.029a1.557,1.557,0,0,0,.552-.331c.015.188.029.375.033.559a2.434,2.434,0,0,1-.3,1.342,2.1,2.1,0,0,1-.14.2.874.874,0,0,0-.187.046,1.785,1.785,0,0,0-.479.3l-.088-.01a4.6,4.6,0,0,0-1.15.048c-.207.031-.417.062-.625.1-.089-.024-.18-.044-.271-.061a2.4,2.4,0,0,0-.708.009,8.77,8.77,0,0,0-1.731.362c-.339.109-.669.239-1,.379l-.259.113c-.194.086-.387.175-.58.264a1.132,1.132,0,0,0-.312.186,2.566,2.566,0,0,0-.244.274c-.141.173-.266.357-.394.54l-.545.777a3.776,3.776,0,0,0-.423.668.66.66,0,0,0,.352.954,1.035,1.035,0,0,0,.6-.062c.161.066.325.127.485.191a3.038,3.038,0,0,0,.839.283,1.912,1.912,0,0,0,.791-.2c.181-.067.369-.128.55-.2l.037.017a2.1,2.1,0,0,1,.767.643c.152.2.28.406.413.614a.66.66,0,0,0,.1.125.211.211,0,0,0,.162.064.266.266,0,0,0,.1-.021c.257-.107.287-.6.3-.819a1.949,1.949,0,0,0-.249-1.138,2.207,2.207,0,0,0,.693-.1l.049-.016a6.939,6.939,0,0,0,.766-.35c.231-.114.466-.223.691-.351-.263.208-.515.431-.756.659a7.95,7.95,0,0,0-.661.685,1.459,1.459,0,0,0-.326.575.214.214,0,0,0-.021.057,2.11,2.11,0,0,0-.016.411,4.545,4.545,0,0,0-.266.423,4.122,4.122,0,0,0-.482,1.252,2.912,2.912,0,0,0-.41.5,3.483,3.483,0,0,0-.362.8l-.055.057c-.191.2-.368.405-.55.609a10.973,10.973,0,0,0-.882,1.1,5.655,5.655,0,0,0-.651,1.222,3.119,3.119,0,0,0-.242,1.1,6.767,6.767,0,0,0-.327.6,12.646,12.646,0,0,1-.613,1.136,11.844,11.844,0,0,1-.745,1.055c-.016.021-.035.04-.051.06h1.4c.089-.148.182-.293.276-.433a5.5,5.5,0,0,1,2.014-1.767q.1-.051.2-.1c.1-.048.2-.1.3-.148.029-.026.056-.052.083-.079a2.252,2.252,0,0,0,.213-.239,4.463,4.463,0,0,0,.414-.674,8.152,8.152,0,0,0,.79-1.889l.009-.038a4.56,4.56,0,0,0,1.145-1.481c.151-.083.295-.184.437-.277q.268-.175.528-.36a1.935,1.935,0,0,0,.843-.028l.051-.015.072-.025a2.618,2.618,0,0,0,.962-.873c.32-.378.658-.747.946-1.15a5.749,5.749,0,0,0,.458-.773c.129-.074.255-.154.377-.233l.031-.02a1.048,1.048,0,0,0,.1-.071l.081-.185c.07-.157.142-.312.227-.462a2.757,2.757,0,0,0,.4-.826.818.818,0,0,0,.013-.142,1.782,1.782,0,0,0,.748-.7,1.731,1.731,0,0,0,.1-.186c0-.041-.01-.082-.016-.122,0,0,0-.007,0-.011a3.16,3.16,0,0,0,.5-.628,17.728,17.728,0,0,0,.905-1.611,11.041,11.041,0,0,0,.7-1.7,6.992,6.992,0,0,0,.283-1.286c.021.065.041.13.058.2.025.09.042.181.058.273,0,.016.006.032.008.047.035.013.071.025.106.036l.035.01c.02.089.039.176.055.265.018.107.031.215.045.322a1.317,1.317,0,0,0-.173.475,1.635,1.635,0,0,0-.02.391.527.527,0,0,0-.278.152,1.584,1.584,0,0,0-.2.352,1.117,1.117,0,0,1-.168.231.291.291,0,0,0-.076.116c-.044.185.176.217.3.173a.616.616,0,0,0,.356-.439c.059-.031.119-.062.181-.09.15-.066.061.062.014.124a1.009,1.009,0,0,1-.114.11,2.173,2.173,0,0,0-.416.485c-.055.1-.158.283-.072.391s.257,0,.341-.064l.032-.025a3.286,3.286,0,0,0,.4-.451,1.787,1.787,0,0,1,.247-.257c.106-.083.118-.019.086.066a.67.67,0,0,1-.148.184,4.03,4.03,0,0,1-.563.49l-.014.01a.392.392,0,0,0-.155.189.179.179,0,0,0,0,.09.221.221,0,0,0,.068.061.243.243,0,0,0,.038.018.311.311,0,0,0,.2,0c.031.1.069.231.172.261a.2.2,0,0,0,.093,0,.418.418,0,0,0,.237.089,1.454,1.454,0,0,0,.573-.207,1,1,0,0,0,.36-.246,1.156,1.156,0,0,0,.293-.343A1.272,1.272,0,0,0,207.6,206.976Z"
            transform="translate(-171.287 -178.482)" fill="#ffe000" />
        <path
            d="M46.983,85.412a10.248,10.248,0,0,1-.885-2.867,9.911,9.911,0,0,1-.111-1.127c0-.061,0-.121-.007-.181a10.374,10.374,0,0,1,.074-1.516q-1.7.856-3.684,1.645c-7.253,2.346-15.818,1.579-21.325-1.293C.619,70.171,6.652,50.83,6.652,50.83S10,35.008,29.058,30.75c15.568-2.984,29.511,7.832,34.657,17.106C63.771,47.7,53.257,22.1,22.757,28.671,16.945,29.909-1.6,38.369.111,61.055.48,75.694,19,94.158,43.638,86.972q1.829-.627,3.456-1.339C47.057,85.56,47.018,85.487,46.983,85.412Z"
            transform="translate(0 -26.59)" fill="#ffe000" />
        <path
            d="M632.533,331.436c.077.048.15.1.222.144a24.961,24.961,0,0,0,2.148-15.64,26.354,26.354,0,0,1-3.241,15.011A9.58,9.58,0,0,1,632.533,331.436Z"
            transform="translate(-570.586 -286.251)" fill="#ffe000" />
        <path
            d="M156.784,19.012c-5.115-2.536-21.095-5.962-33.326,3.512a34.637,34.637,0,0,1,33.181-2.833c1.942,1.2,12.579,5.674,17.8,22.859C174.511,42.617,172.009,26.459,156.784,19.012Z"
            transform="translate(-107.317 -16.264)" fill="#ffe000" />
        <path
            d="M593.821,291.816A13.918,13.918,0,0,1,591.287,298c.2.013.394.031.585.055.1.011.2.026.294.041q.455.072.875.179a9.215,9.215,0,0,1,1.252.416c3.353-5.817,3.445-12.061,2.134-17.862C597.182,288.652,593.821,291.816,593.821,291.816Z"
            transform="translate(-533.781 -254.461)" fill="#ffe000" />
        <path
            d="M498.2,482.911c-.076-.076-.18-.2-.334-.335a8.583,8.583,0,0,0-1.414-1.1,8.906,8.906,0,0,0-2.553-1.1q-.4-.1-.832-.171c-.092-.014-.185-.028-.279-.039a9.022,9.022,0,0,0-2.479.028,9.174,9.174,0,0,0-1.991.541,8.272,8.272,0,0,0-.817.376l-.073.039a9.467,9.467,0,0,0-1.043.651c-.155.11-.306.235-.459.354l-.213.185-.107.094c-.044.039-.073.069-.109.1l-.212.2c-.07.068-.135.142-.2.213-.139.141-.264.295-.393.446-.147.184-.29.371-.426.567-.035.048-.069.1-.1.149-.059.089-.116.178-.171.27-.111.171-.2.354-.3.533-.048.091-.091.184-.137.276l-.068.14-.062.142a9.047,9.047,0,0,0-.757,3.859c0,.052,0,.105.006.158a8.694,8.694,0,0,0,.1.984,8.951,8.951,0,0,0,.772,2.5c.105.221.222.439.346.651l.064.108q.119.2.247.389a9.018,9.018,0,0,0,1.78,1.951,9.408,9.408,0,0,0,1.083.759c.145.084.29.165.438.243h0c.069.036.138.071.208.1.175.087.351.167.531.241a9.364,9.364,0,0,0,1.244.408,9.07,9.07,0,0,0,4.368,0q.149-.037.3-.08c.126-.036.25-.075.373-.116l.148-.048.144-.056c.1-.037.193-.072.288-.111.188-.084.377-.16.558-.256a8.727,8.727,0,0,0,1.045-.607c.163-.116.327-.225.483-.352.078-.062.159-.122.232-.184l.216-.188.112-.1.1-.1.209-.2c.131-.14.267-.275.391-.42.039-.045.078-.091.115-.137.059-.069.116-.139.171-.21a8.7,8.7,0,0,0,.952-1.481,9.171,9.171,0,0,0,.72-1.934,9.038,9.038,0,0,0,.245-2.675c0-.07-.009-.14-.014-.209-.019-.243-.048-.48-.084-.709a8.881,8.881,0,0,0-.86-2.642,8.7,8.7,0,0,0-.685-1.133c-.065-.092-.128-.175-.187-.252q-.051-.068-.1-.126c-.128-.169-.232-.277-.3-.359l-.1-.12,0,0Zm.15,6.644.095.069h0c-.169.416-.334.835-.5,1.251-.219.542-.45,1.087-.649,1.641-.009.025-.017.049-.026.073l-.024.007a12.988,12.988,0,0,0-2.536,1.128c-.038.021-.076.043-.112.065l-.067-.063c-.883-.837-1.753-1.671-2.581-2.564-.032-.033-.064-.068-.095-.1a.22.22,0,0,0,.005-.023h0c.166-.594.338-1.185.525-1.773.232-.728.513-1.439.782-2.152l.067-.177.074-.016a14.339,14.339,0,0,1,2.675-.319l0,.009c.015.035.03.069.046.1A7.587,7.587,0,0,0,498.35,489.555Zm-5.6-9.007c.262.034.514.079.757.133.223.2.461.378.678.576.363.334.708.689,1.04,1.053.422.461,1.205,1.482,1.211,1.489,0,.031-.441,2.367-.444,2.616a11.809,11.809,0,0,0-2.709.394l-.059.018c-.036-.039-.076-.074-.11-.114a11.543,11.543,0,0,0-3.389-2.3c.068-.307.112-.522.177-.829.1-.448.209-.765.294-1.223A8.169,8.169,0,0,0,492.747,480.548Zm-8.365,3.744c.166-.246.347-.479.531-.705.128-.145.25-.293.385-.428.067-.068.13-.138.2-.2l.207-.194.1-.094.108-.092.216-.183c.147-.112.289-.227.44-.331a9.071,9.071,0,0,1,1.171-.7,8.48,8.48,0,0,0,1.953.937h0c.056.018.113.036.17.051l.021.006c.023.007.047.014.072.019-.087.455-.15.92-.23,1.367q-.057.324-.114.65l-.057.02a.381.381,0,0,0-.049.017c-.052.019-.1.039-.156.06a7.791,7.791,0,0,0-3.155,2.3q-.047.058-.092.117a.319.319,0,0,0-.02.027l-.408-.028c-.207-.014-.419-.039-.633-.055-.048-.005-.1-.01-.146-.012,0-.013,0-.025,0-.039a11.042,11.042,0,0,0-.223-1.34A11.331,11.331,0,0,0,484.382,484.292Zm-.653,8.595a8.726,8.726,0,0,1-.742-2.444,9.324,9.324,0,0,1-.1-1.218c.3-.368.6-.742.917-1.1a9.463,9.463,0,0,0,1.079-1.15c.224.022.486.031.7.054.13.014.464.055.466.061a10.429,10.429,0,0,0,1.457,4.019c.028.046.057.093.087.139a.309.309,0,0,0,.018.027c-.282.756-.528,1.528-.772,2.3,0,.008,0,.016-.008.025-.073-.01-.146-.019-.22-.027h0a10.464,10.464,0,0,0-2.509.026C483.971,493.365,483.842,493.129,483.729,492.886Zm8.3,4.968a8.79,8.79,0,0,1-1.251-.029,9.248,9.248,0,0,1-1.248-.212,8.888,8.888,0,0,1-1.215-.393c-.074-.029-.148-.06-.221-.093a3.753,3.753,0,0,0,1.126-.475,17.155,17.155,0,0,0,3.472.342c.046,0,.132-.009.177-.011a6.21,6.21,0,0,0,.679.657A8.864,8.864,0,0,1,492.029,497.854Zm.6-1.091c-.514.012-1.028.015-1.545-.024-.555-.042-1.109-.113-1.657-.208-.072-.011-.142-.024-.213-.037l0,0a8.38,8.38,0,0,0-2.127-2.718h0c-.052-.045-.1-.089-.158-.131l.011-.026c.283-.7.74-2,.822-2.266a12,12,0,0,0,3.975-.143,26.683,26.683,0,0,0,2.672,2.7l.057.046a.116.116,0,0,1-.007.021,7.042,7.042,0,0,1-.545,1.348,8.8,8.8,0,0,1-1.018,1.438l-.147,0Zm7.416-5.593a8.824,8.824,0,0,1-.672,1.866,8.305,8.305,0,0,1-.79,1.29,6.732,6.732,0,0,0-1.1-1.6c-.024-.028-.049-.055-.073-.082l.049-.112c.215-.5.4-1.012.6-1.517.168-.433.36-.928.528-1.363a6.677,6.677,0,0,0,1.687-.795A9,9,0,0,1,500.049,491.17Zm-1.939-7.751c.03.035.069.079.113.13a4.9,4.9,0,0,0-1.625.15s-.887-1.058-1.273-1.483a17.218,17.218,0,0,0-1.358-1.419,8.484,8.484,0,0,1,2.271,1.015,8.181,8.181,0,0,1,1.346,1.059c.146.133.246.248.318.321l.1.108Z"
            transform="translate(-434.755 -434.101)" fill="#ffe000" />
    </svg>
    <svg viewBox="0 0 26.823 37.122" id="download-arrow-icon">
        <path d="M45.981,552.274H19.994v-6.367a1.377,1.377,0,1,1,2.753,0v3.613h20.48v-3.613a1.377,1.377,0,0,1,2.754,0Z"
            transform="translate(-19.944 -515.152)" fill="#ffe000" />
        <path
            d="M46.022,529.228a2.555,2.555,0,0,0-3.614-.008l-5.888,5.861V518.317a3.164,3.164,0,1,0-6.328,0v16.792l-5.887-5.885a2.555,2.555,0,0,0-3.613,3.613L33.324,545.47l12.69-12.629A2.554,2.554,0,0,0,46.022,529.228Z"
            transform="translate(-19.944 -515.152)" fill="#ffe000" />
    </svg>
    <svg viewBox="0 0 19.867 27.491" id="download">
        <g transform="translate(0 0)">
            <path d="M39.242,550.265H19.994V545.55a1.02,1.02,0,1,1,2.039,0v2.676H37.2V545.55a1.02,1.02,0,0,1,2.04,0Z"
                transform="translate(-19.957 -522.774)" />
            <path
                d="M39.259,525.576a1.893,1.893,0,0,0-2.677-.006l-4.361,4.341V517.5a2.343,2.343,0,1,0-4.687,0v12.436l-4.36-4.358a1.892,1.892,0,1,0-2.676,2.676l9.356,9.356,9.4-9.353A1.891,1.891,0,0,0,39.259,525.576Z"
                transform="translate(-19.944 -515.152)" />
        </g>
    </svg>
    <svg viewBox="0 0 64 44.414" id="email">
        <path
            d="M1998.538,624.044a4.716,4.716,0,0,0-2.692-.846h-54.5a4.767,4.767,0,0,0-4.749,4.751v34.914a4.764,4.764,0,0,0,4.749,4.749h54.5a4.764,4.764,0,0,0,4.749-4.749V627.949A4.751,4.751,0,0,0,1998.538,624.044Zm-8.022,3.31L1975.3,642.475l-2.948,2.93-3.314,3.293a.647.647,0,0,1-.88,0l-3.314-3.293-2.948-2.93-15.219-15.121Zm-49.765,35.509V627.949a.586.586,0,0,1,.195-.427l18,17.883-18,17.885A.593.593,0,0,1,1940.75,662.863Zm5.924.593,15.219-15.121,3.333,3.312a4.8,4.8,0,0,0,6.739,0l3.333-3.312,15.218,15.121Zm31.571-18.051,18-17.883a.586.586,0,0,1,.195.427v34.914a.593.593,0,0,1-.195.427Z"
            transform="translate(-1936.594 -623.198)" fill="#ffe000" />
    </svg>
    <svg viewBox="0 0 60.308 60" id="banner-facebook">
        <defs>
            <clipPath id="a">
                <rect width="60.308" height="60" fill="#ffe000" />
            </clipPath>
        </defs>
        <g transform="translate(0 0)" clip-path="url(#a)">
            <path
                d="M30.154,0a30.136,30.136,0,0,0-4.507,59.936V38.146h-7.46V30.22h7.46V24.946c0-8.732,4.254-12.566,11.512-12.566a41.916,41.916,0,0,1,6.184.376v6.919H38.393c-3.081,0-4.157,2.921-4.157,6.213V30.22h9.03L42.04,38.146h-7.8V60A30.138,30.138,0,0,0,30.154,0"
                transform="translate(0 0)" fill="#ffe000" />
        </g>
    </svg>
    <svg viewBox="0 0 62.792 60" id="faq">
        <defs>
            <clipPath id="a">
                <rect width="62.792" height="60" fill="#ffe000" />
            </clipPath>
        </defs>
        <g clip-path="url(#a)">
            <path
                d="M62.78,15.683a19.787,19.787,0,0,0-.185-2.933A13.975,13.975,0,0,0,54.252,1.444,17.645,17.645,0,0,0,46.8,0Q31.754,0,16.7.007a27.239,27.239,0,0,0-3.231.14C8.271.774,4.2,3.16,1.736,7.917A16.785,16.785,0,0,0,0,15.811c.011,6.208,0,12.415.011,18.623a25.218,25.218,0,0,0,.17,2.788A14.253,14.253,0,0,0,11.988,49.9c1.2.224,2.418.31,3.694.468v.8c0,1.84-.016,3.681.006,5.52a3.14,3.14,0,0,0,2.819,3.3,3.453,3.453,0,0,0,2.4-.729q6.527-4.462,13.073-8.9a2.448,2.448,0,0,1,1.279-.392c3.8-.03,7.6,0,11.407-.027a22.913,22.913,0,0,0,3.3-.2,14.107,14.107,0,0,0,11.083-7.679,17.089,17.089,0,0,0,1.741-8.041c-.015-6.11,0-12.219-.012-18.329M31.428,38.32a2.457,2.457,0,0,1-2.538-2.486A2.329,2.329,0,0,1,31.4,33.3a2.321,2.321,0,0,1,2.5,2.47,2.459,2.459,0,0,1-2.473,2.551m7.187-17a6.591,6.591,0,0,1-2.487,3.374c-.373.278-.743.562-1.128.823a2.413,2.413,0,0,0-1.112,2.246,2.433,2.433,0,0,1-2.524,2.709c-1.611,0-2.466-.936-2.475-2.7,0-.1,0-.2,0-.295A6.39,6.39,0,0,1,31.029,22.5c.68-.635,1.4-1.233,2.118-1.822a2.387,2.387,0,0,0,.449-3.586,2.658,2.658,0,0,0-3.854-.409,3.3,3.3,0,0,0-1.162,2.3,4.28,4.28,0,0,1-.251,1.212,2.394,2.394,0,0,1-2.76,1.44,2.17,2.17,0,0,1-1.688-2.208,7.527,7.527,0,1,1,14.734,1.9"
                transform="translate(-0.001 0)" fill="#ffe000" />
        </g>
    </svg>
    <svg viewBox="0 0 64.096 60" id="talk">
        <defs>
            <clipPath id="a">
                <rect width="64.096" height="60" fill="#ffe000" />
            </clipPath>
        </defs>
        <g transform="translate(0 0)">
            <path d="M30.272,38h5.456L33,30.376Z" transform="translate(-7.671 -7.97)" fill="#ffe000" />
            <g transform="translate(0 0)">
                <g clip-path="url(#a)">
                    <path
                        d="M32.048,0C14.348,0,0,11.615,0,25.944,0,35.085,5.854,43.1,14.678,47.726L11.292,59.014a.763.763,0,0,0,1.154.855L25.3,51.3a39.4,39.4,0,0,0,6.75.588c17.7,0,32.048-11.615,32.048-25.944S49.748,0,32.048,0M15.261,33.574a1.526,1.526,0,0,1-3.052,0V21.365H9.157a1.526,1.526,0,0,1,0-3.052h9.157a1.526,1.526,0,1,1,0,3.052H15.261ZM31.068,35A1.527,1.527,0,0,1,29.1,34.12l-.742-2.072H22.006l-.742,2.072a1.526,1.526,0,1,1-2.851-1.093l4.916-13.735a1.5,1.5,0,0,1,1.383-.961c.154,0,.809-.006.978,0a1.5,1.5,0,0,1,1.34.96l4.916,13.735A1.525,1.525,0,0,1,31.068,35m10.136.1H35.1a1.527,1.527,0,0,1-1.526-1.526V19.839a1.526,1.526,0,0,1,3.052,0V32.048H41.2a1.526,1.526,0,0,1,0,3.052m14.678-.327a1.526,1.526,0,0,1-2.143-.256l-5.492-6.986-.886.886c-.017.017-.037.028-.053.043v5.113a1.526,1.526,0,0,1-3.052,0V19.839a1.526,1.526,0,0,1,3.052,0v4.316L52.7,18.76a1.526,1.526,0,1,1,2.158,2.158l-4.446,4.446c.021.024.045.043.065.068l5.659,7.2a1.526,1.526,0,0,1-.256,2.143"
                        transform="translate(0 0)" fill="#ffe000" />
                </g>
            </g>
        </g>
    </svg>
    <svg viewBox="0 0 65.272 61.796" id="line">
        <g transform="translate(-1341.842 -632.174)">
            <path
                d="M-1517.485,1700.8a1.764,1.764,0,0,1-1.311-.591,1.718,1.718,0,0,1-.428-1.354l.669-6.034a1.738,1.738,0,0,0-.376-1.291,1.727,1.727,0,0,0-1.173-.64,35.217,35.217,0,0,1-19.851-8.421,25.226,25.226,0,0,1-5.9-7.714,20.916,20.916,0,0,1-2.145-9.2,21,21,0,0,1,2.525-9.947,26.029,26.029,0,0,1,6.885-8.122,33.457,33.457,0,0,1,10.212-5.476,39.137,39.137,0,0,1,12.505-2.008,36.744,36.744,0,0,1,22.22,7.1c5.988,4.562,9.495,10.695,9.873,17.268a24.224,24.224,0,0,1,.029,2.5,16.064,16.064,0,0,1-.253,1.946,21.483,21.483,0,0,1-2.455,7.04c-.558,1.008-3.38,4.97-4.258,6.027-5.69,6.856-14.44,13.163-26,18.744A1.747,1.747,0,0,1-1517.485,1700.8Zm1.121-35.958,0,0,.045.058c1.105,1.433,6.625,8.584,6.712,8.667a1.646,1.646,0,0,0,1.113.451h.014a1.7,1.7,0,0,0,1.645-1.714v-12.338a1.646,1.646,0,0,0-1.644-1.643,1.646,1.646,0,0,0-1.644,1.643v7.579c-.055-.071-6.561-8.561-6.661-8.672a1.646,1.646,0,0,0-1.227-.551h-.062a1.7,1.7,0,0,0-1.579,1.711v12.341a1.645,1.645,0,0,0,1.643,1.642,1.645,1.645,0,0,0,1.644-1.642v-7.536Zm13.639-6.516a1.645,1.645,0,0,0-1.642,1.643v12.408a1.644,1.644,0,0,0,1.642,1.642h6.573a1.644,1.644,0,0,0,1.642-1.642,1.645,1.645,0,0,0-1.642-1.644h-4.928v-2.919h4.928a1.644,1.644,0,0,0,1.642-1.642,1.645,1.645,0,0,0-1.642-1.643h-4.928v-2.919h4.928a1.644,1.644,0,0,0,1.642-1.642,1.645,1.645,0,0,0-1.642-1.643Zm-21.394,0a1.286,1.286,0,0,0-1.285,1.283v13.126a1.287,1.287,0,0,0,1.285,1.285h.719a1.286,1.286,0,0,0,1.283-1.285v-13.126a1.285,1.285,0,0,0-1.283-1.283Zm-11.063,0a1.645,1.645,0,0,0-1.643,1.643v12.408a1.645,1.645,0,0,0,1.643,1.642h6.574a1.645,1.645,0,0,0,1.643-1.642,1.646,1.646,0,0,0-1.643-1.644h-4.93v-10.764A1.646,1.646,0,0,0-1535.182,1658.322Z"
                transform="translate(2890.342 -1007.326)" fill="#ffe000" />
            <path
                d="M-1517.485,1701.3a2.264,2.264,0,0,1-1.684-.758,2.212,2.212,0,0,1-.552-1.743l.669-6.033a1.241,1.241,0,0,0-.268-.922,1.23,1.23,0,0,0-.836-.456,35.719,35.719,0,0,1-20.134-8.546,25.724,25.724,0,0,1-6.015-7.867,21.412,21.412,0,0,1-2.2-9.417,21.5,21.5,0,0,1,2.583-10.182,26.527,26.527,0,0,1,7.015-8.279,33.956,33.956,0,0,1,10.364-5.559,39.635,39.635,0,0,1,12.665-2.034,37.246,37.246,0,0,1,22.523,7.2c6.106,4.652,9.682,10.916,10.069,17.637a24.689,24.689,0,0,1,.029,2.559,16.549,16.549,0,0,1-.259,2,21.981,21.981,0,0,1-2.51,7.2c-.567,1.023-3.423,5.036-4.311,6.1-5.736,6.912-14.542,13.262-26.172,18.875A2.243,2.243,0,0,1-1517.485,1701.3Zm1.613-60.8a38.639,38.639,0,0,0-12.346,1.982,32.957,32.957,0,0,0-10.06,5.394,25.531,25.531,0,0,0-6.755,7.966,20.5,20.5,0,0,0-2.466,9.712,20.42,20.42,0,0,0,2.095,8.98,24.73,24.73,0,0,0,5.784,7.561,34.714,34.714,0,0,0,19.569,8.295,2.224,2.224,0,0,1,1.511.823,2.235,2.235,0,0,1,.483,1.66l-.669,6.033a1.224,1.224,0,0,0,.3.965,1.263,1.263,0,0,0,.938.424,1.25,1.25,0,0,0,.547-.128c11.5-5.55,20.193-11.812,25.837-18.613.868-1.046,3.655-4.958,4.205-5.95a20.984,20.984,0,0,0,2.4-6.876l0-.015a15.577,15.577,0,0,0,.245-1.885,23.741,23.741,0,0,0-.029-2.435c-.37-6.426-3.806-12.427-9.677-16.9A36.242,36.242,0,0,0-1515.873,1640.5Zm7.393,34.017h-.04a2.145,2.145,0,0,1-1.429-.586c-.042-.04-.115-.109-5.915-7.625v6.069a2.146,2.146,0,0,1-2.144,2.142,2.145,2.145,0,0,1-2.143-2.142v-12.341a2.2,2.2,0,0,1,2.059-2.211l.082,0a2.146,2.146,0,0,1,1.6.718c.031.034.095.106,5.788,7.531v-6.1a2.146,2.146,0,0,1,2.144-2.143,2.146,2.146,0,0,1,2.144,2.143V1672.3A2.209,2.209,0,0,1-1508.479,1674.517Zm-.765-1.3a1.145,1.145,0,0,0,.757.3h.038a1.2,1.2,0,0,0,1.116-1.213v-12.338a1.145,1.145,0,0,0-1.144-1.143,1.145,1.145,0,0,0-1.144,1.143v9.046l-.9-1.161-.339-.442c-5-6.523-6.2-8.074-6.3-8.209a1.15,1.15,0,0,0-.893-.377,1.19,1.19,0,0,0-1.1,1.211v12.341a1.144,1.144,0,0,0,1.143,1.142,1.145,1.145,0,0,0,1.144-1.142v-9.054l.942,1.273C-1513,1668.379-1509.536,1672.862-1509.245,1673.219Zm13.092,1.3h-6.573a2.145,2.145,0,0,1-2.142-2.142v-12.408a2.145,2.145,0,0,1,2.142-2.143h6.573a2.145,2.145,0,0,1,2.142,2.143,2.144,2.144,0,0,1-2.142,2.142h-4.428v1.919h4.428a2.145,2.145,0,0,1,2.142,2.143,2.144,2.144,0,0,1-2.142,2.142h-4.428v1.919h4.428a2.146,2.146,0,0,1,2.142,2.144A2.145,2.145,0,0,1-1496.153,1674.516Zm-6.573-15.694a1.144,1.144,0,0,0-1.142,1.143v12.408a1.144,1.144,0,0,0,1.142,1.142h6.573a1.144,1.144,0,0,0,1.142-1.142,1.145,1.145,0,0,0-1.142-1.144h-5.428v-3.919h5.428a1.143,1.143,0,0,0,1.142-1.142,1.144,1.144,0,0,0-1.142-1.143h-5.428v-3.919h5.428a1.143,1.143,0,0,0,1.142-1.142,1.144,1.144,0,0,0-1.142-1.143Zm-20.675,15.694h-.719a1.787,1.787,0,0,1-1.785-1.785v-13.126a1.786,1.786,0,0,1,1.785-1.783h.719a1.785,1.785,0,0,1,1.783,1.783v13.126A1.786,1.786,0,0,1-1523.4,1674.516Zm-.719-15.694a.785.785,0,0,0-.785.783v13.126a.786.786,0,0,0,.785.785h.719a.785.785,0,0,0,.783-.785v-13.126a.784.784,0,0,0-.783-.783Zm-4.488,15.694h-6.574a2.145,2.145,0,0,1-2.143-2.142v-12.408a2.146,2.146,0,0,1,2.143-2.143,2.146,2.146,0,0,1,2.144,2.143v10.264h4.43a2.146,2.146,0,0,1,2.143,2.144A2.145,2.145,0,0,1-1528.608,1674.516Zm-6.574-15.694a1.145,1.145,0,0,0-1.143,1.143v12.408a1.144,1.144,0,0,0,1.143,1.142h6.574a1.144,1.144,0,0,0,1.143-1.142,1.145,1.145,0,0,0-1.143-1.144h-5.43v-11.264A1.145,1.145,0,0,0-1535.182,1658.822Z"
                transform="translate(2890.342 -1007.326)" fill="rgba(0,0,0,0)" />
        </g>
    </svg>
    <svg viewBox="0 0 60 60" id="fbmessenger">
        <defs>
            <clipPath id="a">
                <rect width="60" height="60" fill="#ffe000" />
            </clipPath>
        </defs>
        <g transform="translate(0 0)">
            <g transform="translate(0 0)" clip-path="url(#a)">
                <path
                    d="M30,0C13.458,0,0,12.786,0,28.5A27.833,27.833,0,0,0,9,48.816v8.172a3.007,3.007,0,0,0,4.35,2.691l7.887-3.942A31.373,31.373,0,0,0,30,57c16.542,0,30-12.786,30-28.5S46.542,0,30,0m5.4,35.349a3,3,0,0,1-4,.225L24.75,30.252,9,37.251l15.6-15.6a3,3,0,0,1,4-.222l6.654,5.322,15.75-7Z"
                    transform="translate(0 0)" fill="#ffe000" />
            </g>
        </g>
    </svg>
    <svg viewBox="0 0 26.896 25.723" id="phone">
        <g transform="translate(0 0)">
            <g transform="translate(12.863 12.861)">
                <path d="M1889.009,534.211a1.754,1.754,0,1,0-1.754,1.754A1.755,1.755,0,0,0,1889.009,534.211Z"
                    transform="translate(-1885.5 -532.457)" fill="#ffe000" />
                <path d="M1896.114,534.211a1.754,1.754,0,1,0-1.755,1.754A1.755,1.755,0,0,0,1896.114,534.211Z"
                    transform="translate(-1887.343 -532.457)" fill="#ffe000" />
                <path d="M1903.218,534.211a1.754,1.754,0,1,0-1.755,1.754A1.755,1.755,0,0,0,1903.218,534.211Z"
                    transform="translate(-1889.185 -532.457)" fill="#ffe000" />
                <path d="M1889.009,540.526a1.754,1.754,0,1,0-1.754,1.753A1.755,1.755,0,0,0,1889.009,540.526Z"
                    transform="translate(-1885.5 -534.095)" fill="#ffe000" />
                <path d="M1896.114,540.526a1.754,1.754,0,1,0-1.755,1.753A1.755,1.755,0,0,0,1896.114,540.526Z"
                    transform="translate(-1887.343 -534.095)" fill="#ffe000" />
                <path d="M1903.218,540.526a1.754,1.754,0,1,0-1.755,1.753A1.755,1.755,0,0,0,1903.218,540.526Z"
                    transform="translate(-1889.185 -534.095)" fill="#ffe000" />
                <path d="M1889.009,546.841a1.754,1.754,0,1,0-1.754,1.754A1.754,1.754,0,0,0,1889.009,546.841Z"
                    transform="translate(-1885.5 -535.734)" fill="#ffe000" />
                <path d="M1896.114,546.841a1.754,1.754,0,1,0-1.755,1.754A1.754,1.754,0,0,0,1896.114,546.841Z"
                    transform="translate(-1887.343 -535.734)" fill="#ffe000" />
                <path d="M1903.218,546.841a1.754,1.754,0,1,0-1.755,1.754A1.755,1.755,0,0,0,1903.218,546.841Z"
                    transform="translate(-1889.185 -535.734)" fill="#ffe000" />
            </g>
            <path
                d="M1892.132,517.292a2.008,2.008,0,0,0-.456-1.228,10.466,10.466,0,0,0-5.429-.918c-4.308.541-8.621,3.591-11.5,6.55s-6.01,7.2-6.552,11.5a10.454,10.454,0,0,0,.919,5.427,2,2,0,0,0,1.227.457c1.124.032,2.562-1.144,3.629-2.757a10.318,10.318,0,0,0,1.762-4.429,3.309,3.309,0,0,1-.593-2.439c.356-1.728,1.907-3.122,3.079-4.292s2.563-2.723,4.293-3.079a3.3,3.3,0,0,1,2.439.595,10.294,10.294,0,0,0,4.428-1.764C1890.987,519.853,1892.164,518.415,1892.132,517.292Z"
                transform="translate(-1868.133 -515.09)" fill="#ffe000" />
            <path
                d="M1871.161,546.595a2.893,2.893,0,0,0,2.162.566c2.345-.281,5.5-5.2,4.091-7.506a12.98,12.98,0,0,1-1.717,3.683C1874.525,545.052,1872.986,546.543,1871.161,546.595Z"
                transform="translate(-1868.919 -521.463)" fill="#ffe000" />
            <path
                d="M1899.641,518.118c-.055,1.825-1.543,3.364-3.26,4.535a12.912,12.912,0,0,1-3.679,1.718c2.3,1.4,7.222-1.746,7.5-4.091A2.892,2.892,0,0,0,1899.641,518.118Z"
                transform="translate(-1874.505 -515.876)" fill="#ffe000" />
        </g>
    </svg>
    <svg viewBox="0 0 61.478 61.495" id="call">
        <g transform="translate(-1066.602 -454.093)">
            <path
                d="M-1505.9,1700.411a28.654,28.654,0,0,1-10.972-3.195,59.825,59.825,0,0,1-19.808-15.5,54.465,54.465,0,0,1-9.663-16.109,20.811,20.811,0,0,1-1.61-8.966,7.285,7.285,0,0,1,2.289-4.917c1.532-1.458,2.977-2.979,4.486-4.464a4.257,4.257,0,0,1,6.4-.013c1.219,1.2,2.412,2.415,3.62,3.623,1.168,1.18,2.338,2.338,3.505,3.519,2.062,2.074,2.062,4.49.014,6.553-1.472,1.484-2.93,2.967-4.425,4.413a.923.923,0,0,0-.226,1.183,26.508,26.508,0,0,0,4.009,6.426,46.384,46.384,0,0,0,11.187,10.186c.93.579,1.96,1.005,2.929,1.534a.883.883,0,0,0,1.232-.226c1.47-1.509,2.965-2.993,4.461-4.478a4.231,4.231,0,0,1,6.4,0q3.6,3.584,7.19,7.181a4.28,4.28,0,0,1-.024,6.515c-1.359,1.37-2.8,2.677-4.085,4.111a7.84,7.84,0,0,1-6.2,2.649Q-1505.548,1700.431-1505.9,1700.411Zm-3.052-39.109a16,16,0,0,0-9.15-4.565l.652-4.665a20.6,20.6,0,0,1,11.813,5.9,20.739,20.739,0,0,1,5.8,11.192l-4.639.792A16.007,16.007,0,0,0-1508.954,1661.3Zm8.408-8.186a29.634,29.634,0,0,0-16.942-8.45l.652-4.666a34.184,34.184,0,0,1,19.607,9.782,34.487,34.487,0,0,1,9.628,18.574l-4.639.791A29.66,29.66,0,0,0-1500.547,1653.116Z"
                transform="translate(2615.102 -1185.343)" fill="#ffe000" />
            <path
                d="M-1505.2,1700.931c-.236,0-.482-.007-.729-.021a28.979,28.979,0,0,1-11.162-3.244,60.274,60.274,0,0,1-10.813-6.752,61.958,61.958,0,0,1-9.159-8.881,54.641,54.641,0,0,1-9.749-16.257,20.949,20.949,0,0,1-1.64-9.178,7.828,7.828,0,0,1,2.443-5.242c.914-.87,1.817-1.782,2.689-2.665.583-.589,1.185-1.2,1.789-1.793a5.055,5.055,0,0,1,3.551-1.6,5.084,5.084,0,0,1,3.547,1.584c.81.8,1.62,1.612,2.4,2.4q.609.614,1.22,1.227c.563.568,1.134,1.14,1.687,1.693.6.6,1.214,1.214,1.821,1.828a5.212,5.212,0,0,1,1.693,3.632,5.177,5.177,0,0,1-1.679,3.625l-.641.647c-1.232,1.244-2.507,2.531-3.788,3.769-.229.231-.246.327-.117.632a25.709,25.709,0,0,0,3.936,6.305,45.727,45.727,0,0,0,11.065,10.078c.538.335,1.109.616,1.714.913.391.192.8.391,1.188.605l.006,0a.612.612,0,0,0,.269.095c.033,0,.133,0,.36-.233,1.452-1.491,2.952-2.981,4.4-4.421l.064-.064a5.036,5.036,0,0,1,3.546-1.606,5.065,5.065,0,0,1,3.554,1.6c2.169,2.158,4.691,4.669,7.193,7.184a4.767,4.767,0,0,1-.023,7.219c-.464.468-.943.933-1.406,1.383-.9.872-1.825,1.774-2.662,2.71A8.322,8.322,0,0,1-1505.2,1700.931Zm-32.78-54.63a4.081,4.081,0,0,0-2.849,1.311c-.6.591-1.2,1.2-1.781,1.784-.878.887-1.786,1.8-2.712,2.687a6.769,6.769,0,0,0-2.135,4.594,20.022,20.022,0,0,0,1.58,8.751,53.667,53.667,0,0,0,9.578,15.963,60.961,60.961,0,0,0,9.011,8.737,59.277,59.277,0,0,0,10.633,6.639,27.652,27.652,0,0,0,10.78,3.145c.229.013.456.019.674.019a7.373,7.373,0,0,0,5.828-2.482c.861-.963,1.8-1.877,2.711-2.761.46-.447.936-.909,1.392-1.369a4.234,4.234,0,0,0,1.371-2.917,4.125,4.125,0,0,0-1.346-2.893c-2.5-2.514-5.021-5.024-7.188-7.179a4.09,4.09,0,0,0-2.85-1.315,4.063,4.063,0,0,0-2.841,1.315l-.064.064c-1.448,1.438-2.945,2.924-4.391,4.409a1.52,1.52,0,0,1-1.077.536,1.533,1.533,0,0,1-.756-.222c-.373-.2-.767-.4-1.148-.584-.6-.295-1.22-.6-1.8-.963a46.708,46.708,0,0,1-11.31-10.295,26.673,26.673,0,0,1-4.082-6.548,1.4,1.4,0,0,1,.332-1.728l.007-.007c1.274-1.231,2.546-2.515,3.776-3.757l.642-.648a4.154,4.154,0,0,0,1.389-2.919,4.189,4.189,0,0,0-1.4-2.929c-.606-.613-1.222-1.229-1.818-1.825-.553-.554-1.126-1.126-1.689-1.695q-.61-.611-1.221-1.227c-.781-.787-1.589-1.6-2.394-2.391A4.109,4.109,0,0,0-1537.981,1646.3Zm33.092,24.23-.085-.492a15.506,15.506,0,0,0-4.335-8.383,15.5,15.5,0,0,0-8.866-4.423l-.495-.07.791-5.655.495.069a21.1,21.1,0,0,1,12.1,6.04,21.254,21.254,0,0,1,5.936,11.46l.085.493Zm-12.653-14.212a16.488,16.488,0,0,1,8.94,4.629,16.491,16.491,0,0,1,4.521,8.43l3.654-.624a20.261,20.261,0,0,0-5.568-10.431,20.1,20.1,0,0,0-11.034-5.68Zm24.893,13.405-.084-.493a29.153,29.153,0,0,0-8.168-15.763,29.132,29.132,0,0,0-16.657-8.308l-.495-.069.79-5.656.5.069a34.693,34.693,0,0,1,19.892,9.924,35,35,0,0,1,9.767,18.843l.085.494Zm-24.276-25.481a30.121,30.121,0,0,1,16.731,8.518,30.148,30.148,0,0,1,8.358,15.809l3.652-.623a34.007,34.007,0,0,0-9.4-17.813,33.694,33.694,0,0,0-18.828-9.567Z"
                transform="translate(2615.102 -1185.343)" fill="rgba(0,0,0,0)" />
        </g>
    </svg>
    <svg viewBox="0 0 64.927 64" id="poker">
        <path
            d="M-195.008,694.113q0,.293.388.4A1.147,1.147,0,0,0-194,694.5a.493.493,0,0,0,.39-.322.637.637,0,0,0,.007-.111l-.257-7.139a.566.566,0,0,0-.223-.425,1.326,1.326,0,0,0-.534-.273,1.419,1.419,0,0,0-.59-.041.532.532,0,0,0-.392.224l-3.794,6.053a.734.734,0,0,0-.051.107.521.521,0,0,0,.2.515,1.37,1.37,0,0,0,.607.349c.292.078.489.034.593-.133l.765-1.291,2.247.6Zm.078-6.072.05,3.465-1.814-.486Z"
            transform="translate(227.276 -680.345)" fill="#ffe000" />
        <path
            d="M-181.08,730.747a1.347,1.347,0,0,0,.534.273,1.419,1.419,0,0,0,.59.041.53.53,0,0,0,.392-.224l3.794-6.053a.73.73,0,0,0,.051-.107.52.52,0,0,0-.2-.515,1.364,1.364,0,0,0-.608-.349c-.292-.078-.489-.034-.593.133l-.765,1.291-2.246-.6-.025-1.5q0-.293-.389-.4a1.147,1.147,0,0,0-.622.013.493.493,0,0,0-.39.322.679.679,0,0,0-.006.111l.256,7.139A.566.566,0,0,0-181.08,730.747Zm2.613-4.521-1.763,2.978-.05-3.464Z"
            transform="translate(227.276 -680.345)" fill="#ffe000" />
        <path
            d="M-162.907,690.859a4.114,4.114,0,0,0-2.516-1.931l-31.5-8.44a4.114,4.114,0,0,0-3.145.414A4.116,4.116,0,0,0-202,683.419l-2.022,7.546-5.666,1.518a.951.951,0,0,0-.673,1.165.951.951,0,0,0,.918.705.961.961,0,0,0,.247-.032l4.606-1.234-.923,3.443-12,3.214a.953.953,0,0,0-.577.444.947.947,0,0,0-.1.721,2.71,2.71,0,0,1-.273,2.07,2.71,2.71,0,0,1-1.656,1.271.95.95,0,0,0-.577.442.954.954,0,0,0-.1.722l7.838,29.249a.95.95,0,0,0,.442.577.945.945,0,0,0,.722.1,2.73,2.73,0,0,1,3.34,1.929.951.951,0,0,0,.918.705.912.912,0,0,0,.247-.033l16.717-4.479,5.964,1.6-27.285,7.311a2.246,2.246,0,0,1-2.746-1.586L-225.3,700.957a2.246,2.246,0,0,1,1.586-2.747l11.129-2.982a.95.95,0,0,0,.673-1.165.951.951,0,0,0-1.165-.672l-11.13,2.982a4.149,4.149,0,0,0-2.93,5.076l10.671,39.824a4.151,4.151,0,0,0,4,3.072,4.128,4.128,0,0,0,1.071-.142l30.468-8.164,2.681.719a4.135,4.135,0,0,0,1.072.142,4.153,4.153,0,0,0,4-3.073l3.53-13.172a.952.952,0,0,0-.673-1.165.951.951,0,0,0-1.165.672L-175,733.335a2.246,2.246,0,0,1-2.746,1.586l-31.5-8.441a2.245,2.245,0,0,1-1.585-2.746l8.513-31.771h0l2.158-8.052a2.23,2.23,0,0,1,1.044-1.362,2.231,2.231,0,0,1,1.7-.224l31.5,8.441a2.228,2.228,0,0,1,1.361,1.044,2.227,2.227,0,0,1,.224,1.7l-6.2,23.142a.95.95,0,0,0,.673,1.164.951.951,0,0,0,1.165-.672l6.2-23.142A4.118,4.118,0,0,0-162.907,690.859Zm-49.762,32.383a4.151,4.151,0,0,0,2.931,5.076l15.5,4.154-12.71,3.406a4.652,4.652,0,0,0-4.385-2.532l-7.4-27.6a4.6,4.6,0,0,0,1.917-1.817,4.593,4.593,0,0,0,.615-2.569l10.113-2.71Z"
            transform="translate(227.276 -680.345)" fill="#ffe000" />
        <path
            d="M-190.71,716.284a1.476,1.476,0,0,0,1.274.735,1.469,1.469,0,0,0,.735-.2l9.277-5.356a5.44,5.44,0,0,0,1.989-7.423,5.454,5.454,0,0,0-4.71-2.717,5.433,5.433,0,0,0-2.713.729l-1.139.657-.657-1.138a5.452,5.452,0,0,0-4.71-2.718,5.432,5.432,0,0,0-2.713.729,5.44,5.44,0,0,0-1.989,7.422Zm-2.415-15.052a3.526,3.526,0,0,1,1.761-.474,3.545,3.545,0,0,1,3.062,1.766l1.134,1.963a.95.95,0,0,0,1.3.348l1.963-1.133a3.523,3.523,0,0,1,1.761-.474,3.544,3.544,0,0,1,3.062,1.767,3.535,3.535,0,0,1-1.292,4.824l-8.9,5.14-5.14-8.9A3.535,3.535,0,0,1-193.125,701.232Z"
            transform="translate(227.276 -680.345)" fill="#ffe000" />
    </svg>
    <svg width="26" height="50" viewBox="0 0 19 58" id="slash">
        <text fill="#ffe000" font-size="43" font-family="Roboto-Regular, Roboto">
            <tspan x="0.398" y="40">/</tspan>
        </text>
        </svg>
    <svg id="telegram" viewBox="0 0 65.952 60">
        <defs>
            <clipPath id="a">
                <rect width="65.952" height="60" fill="#ffe000" />
            </clipPath>
        </defs>
        <g transform="translate(0 0)">
            <g transform="translate(0 0)" clip-path="url(#a)">
                <path
                    d="M64.707.825A4.6,4.6,0,0,0,59.988.468h0c-1.922.771-54.391,23.277-56.528,24.2-.389.135-3.782,1.4-3.432,4.221.312,2.542,3.039,3.6,3.372,3.717L16.737,37.17c.885,2.946,4.148,13.815,4.869,16.137.45,1.447,1.183,3.35,2.469,3.741a3.065,3.065,0,0,0,2.976-.533l8.156-7.564L48.372,59.219l.313.188A6.339,6.339,0,0,0,51.254,60a4.752,4.752,0,0,0,1.817-.355,5.5,5.5,0,0,0,2.844-2.9L65.748,5.627c.6-2.73-.234-4.119-1.041-4.8M28.5,39,24,51,19.5,36,54,10.5Z"
                    transform="translate(0 0)" fill="#ffe000" />
            </g>
        </g>
    </svg>
    <svg viewBox="0 0 70.868 62.414" id="wechat">
        <g transform="translate(-1062.799 -631.371)">
            <path
                d="M-1482.5,1701.133l-11.766-5.043a26.467,26.467,0,0,1-5.7.677,26.467,26.467,0,0,1-8.5-1.372,22.693,22.693,0,0,1-6.94-3.744,17.777,17.777,0,0,1-4.68-5.551,14.422,14.422,0,0,1-1.716-6.8,14.428,14.428,0,0,1,1.716-6.8,17.775,17.775,0,0,1,4.68-5.552,22.71,22.71,0,0,1,6.94-3.744,26.467,26.467,0,0,1,8.5-1.373,26.453,26.453,0,0,1,8.5,1.373,22.7,22.7,0,0,1,6.94,3.744,17.768,17.768,0,0,1,4.679,5.552,14.417,14.417,0,0,1,1.716,6.8c0,5.346-3.074,10.338-8.437,13.7l4.069,8.132v0Zm-14.189-26.2a3.279,3.279,0,0,0,3.275,3.275,3.278,3.278,0,0,0,3.274-3.275,3.279,3.279,0,0,0-3.274-3.275A3.28,3.28,0,0,0-1496.69,1674.933Zm-13.1,0a3.279,3.279,0,0,0,3.275,3.275,3.278,3.278,0,0,0,3.275-3.275,3.279,3.279,0,0,0-3.275-3.275A3.28,3.28,0,0,0-1509.791,1674.933Zm-31.657,10.915,3.453-6.906a23.483,23.483,0,0,1-7.285-7.445,18.6,18.6,0,0,1-2.722-9.665,18.617,18.617,0,0,1,2.059-8.5,21.994,21.994,0,0,1,5.614-6.94,26.925,26.925,0,0,1,8.328-4.68,30.607,30.607,0,0,1,10.2-1.716,30.789,30.789,0,0,1,9.09,1.351,27.717,27.717,0,0,1,7.7,3.731,21.507,21.507,0,0,1,8.932,12.652,31.384,31.384,0,0,0-3.89-.267c-14.447,0-26.2,9.8-26.2,21.835a18.328,18.328,0,0,0,.48,4.1,29.6,29.6,0,0,1-6.354-1.581l-9.406,4.03h0Zm25.106-32.749a3.279,3.279,0,0,0,3.275,3.275,3.278,3.278,0,0,0,3.275-3.275,3.278,3.278,0,0,0-3.275-3.274A3.279,3.279,0,0,0-1516.341,1653.1Zm-17.467,0a3.278,3.278,0,0,0,3.275,3.274,3.278,3.278,0,0,0,3.275-3.274,3.279,3.279,0,0,0-3.275-3.275A3.279,3.279,0,0,0-1533.808,1653.1Z"
                transform="translate(2611.299 -1008.128)" fill="#ffe000" />
            <path
                d="M-1481.683,1701.914l-1.016-.321-11.619-4.98a26.711,26.711,0,0,1-5.647.654,26.965,26.965,0,0,1-8.659-1.4,23.191,23.191,0,0,1-7.092-3.827,18.274,18.274,0,0,1-4.81-5.708,14.915,14.915,0,0,1-1.774-7.032,14.923,14.923,0,0,1,1.774-7.033,18.271,18.271,0,0,1,4.81-5.709,23.208,23.208,0,0,1,7.092-3.827,26.968,26.968,0,0,1,8.659-1.4,26.956,26.956,0,0,1,8.658,1.4,23.194,23.194,0,0,1,7.092,3.827,18.263,18.263,0,0,1,4.809,5.709,14.91,14.91,0,0,1,1.774,7.033c0,5.393-3.014,10.428-8.288,13.877l3.88,7.756Zm-12.535-6.346.147.063,10.514,4.506-3.663-7.321.385-.241c5.213-3.266,8.2-8.1,8.2-13.274a13.921,13.921,0,0,0-1.658-6.566,17.27,17.27,0,0,0-4.55-5.4,22.2,22.2,0,0,0-6.788-3.661,25.954,25.954,0,0,0-8.337-1.346,25.968,25.968,0,0,0-8.339,1.346,22.212,22.212,0,0,0-6.788,3.661,17.274,17.274,0,0,0-4.55,5.4,13.932,13.932,0,0,0-1.658,6.566,13.927,13.927,0,0,0,1.658,6.565,17.28,17.28,0,0,0,4.55,5.394,22.192,22.192,0,0,0,6.788,3.661,25.968,25.968,0,0,0,8.339,1.346,25.982,25.982,0,0,0,5.592-.665Zm-48-8.95.3-.959.017-.035,3.256-6.511a23.873,23.873,0,0,1-7.069-7.359,19.1,19.1,0,0,1-2.793-9.922,19.11,19.11,0,0,1,2.113-8.723,22.49,22.49,0,0,1,5.74-7.1,27.424,27.424,0,0,1,8.481-4.767,31.109,31.109,0,0,1,10.365-1.745,31.288,31.288,0,0,1,9.238,1.373,28.213,28.213,0,0,1,7.843,3.8,22.006,22.006,0,0,1,9.133,12.951l.159.695-.707-.087a30.923,30.923,0,0,0-3.829-.263c-14.172,0-25.7,9.571-25.7,21.335a17.823,17.823,0,0,0,.467,3.988l.16.7-.708-.087a29.788,29.788,0,0,1-6.275-1.541l-9.273,3.971Zm20.416-46.118a30.11,30.11,0,0,0-10.033,1.688,26.433,26.433,0,0,0-8.174,4.592,21.5,21.5,0,0,0-5.488,6.782,18.119,18.119,0,0,0-2.005,8.271,18.109,18.109,0,0,0,2.651,9.408,22.977,22.977,0,0,0,7.13,7.283l.372.244-3.043,6.086,8.334-3.571.184.065a30.294,30.294,0,0,0,5.551,1.46,18.566,18.566,0,0,1-.343-3.508c0-12.315,11.978-22.335,26.7-22.335a29.954,29.954,0,0,1,3.23.188,21.2,21.2,0,0,0-8.558-11.663,27.217,27.217,0,0,0-7.565-3.663A30.29,30.29,0,0,0-1521.8,1640.5Zm28.385,38.209a3.779,3.779,0,0,1-3.775-3.775,3.779,3.779,0,0,1,3.775-3.775,3.779,3.779,0,0,1,3.774,3.775A3.779,3.779,0,0,1-1493.415,1678.708Zm0-6.55a2.778,2.778,0,0,0-2.775,2.775,2.778,2.778,0,0,0,2.775,2.775,2.778,2.778,0,0,0,2.774-2.775A2.778,2.778,0,0,0-1493.415,1672.158Zm-13.1,6.55a3.779,3.779,0,0,1-3.775-3.775,3.779,3.779,0,0,1,3.775-3.775,3.779,3.779,0,0,1,3.775,3.775A3.779,3.779,0,0,1-1506.515,1678.708Zm0-6.55a2.778,2.778,0,0,0-2.775,2.775,2.778,2.778,0,0,0,2.775,2.775,2.778,2.778,0,0,0,2.775-2.775A2.778,2.778,0,0,0-1506.515,1672.158Zm-6.55-15.284a3.779,3.779,0,0,1-3.775-3.775,3.779,3.779,0,0,1,3.775-3.774,3.779,3.779,0,0,1,3.775,3.774A3.779,3.779,0,0,1-1513.066,1656.874Zm0-6.549a2.778,2.778,0,0,0-2.775,2.774,2.778,2.778,0,0,0,2.775,2.775,2.778,2.778,0,0,0,2.775-2.775A2.778,2.778,0,0,0-1513.066,1650.325Zm-17.467,6.549a3.779,3.779,0,0,1-3.775-3.774,3.779,3.779,0,0,1,3.775-3.775,3.779,3.779,0,0,1,3.775,3.775A3.779,3.779,0,0,1-1530.533,1656.874Zm0-6.549a2.778,2.778,0,0,0-2.775,2.775,2.778,2.778,0,0,0,2.775,2.774,2.778,2.778,0,0,0,2.775-2.774A2.778,2.778,0,0,0-1530.533,1650.325Z"
                transform="translate(2611.299 -1008.128)" fill="rgba(0,0,0,0)" />
        </g>
    </svg>
    <svg viewBox="0 0 60.915 61.4" id="whatsapp">
        <g transform="translate(-1343.5 -454.188)">
            <path
                d="M-1547.919,1699l3.181-15.439a29.84,29.84,0,0,1-3.262-13.512,30,30,0,0,1,28.493-30.013,29.96,29.96,0,0,1,31.406,30.879,30.013,30.013,0,0,1-30.408,28.994,29.822,29.822,0,0,1-12.873-3.125l-15.126,3.584a1.182,1.182,0,0,1-.274.032A1.166,1.166,0,0,1-1547.919,1699Zm19.436-8.033a23.217,23.217,0,0,0,10.439,2.446,23.3,23.3,0,0,0,16.586-6.87,23.5,23.5,0,0,0,6.87-16.586,23.3,23.3,0,0,0-6.87-16.586,23.3,23.3,0,0,0-16.586-6.87,23.5,23.5,0,0,0-16.586,6.87,23.306,23.306,0,0,0-6.87,16.586,23.192,23.192,0,0,0,2.55,10.647l1.039,2.033-1.953,9.477,9.275-2.2Zm3.328-13.834c-6.592-6.153-8.337-11.279-7.925-15.344.234-2.3,2.155-4.387,3.776-5.756a2.164,2.164,0,0,1,3.379.774l2.44,5.52a2.163,2.163,0,0,1-.266,2.2l-1.238,1.6a2.107,2.107,0,0,0-.167,2.342c1.473,2.567,7.249,7.7,9.993,8.812a2.111,2.111,0,0,0,2.3-.485l1.419-1.445a2.166,2.166,0,0,1,2.14-.563l5.8,1.667a2.164,2.164,0,0,1,1.227,3.242c-1.134,1.792-2.936,3.978-5.189,4.523a11.488,11.488,0,0,1-2.714.315C-1514.01,1684.533-1519.1,1682.778-1525.154,1677.131Z"
                transform="translate(2892 -1185.312)" fill="#ffe000" />
            <path
                d="M-1546.782,1700.9a1.657,1.657,0,0,1-1.288-.616,1.657,1.657,0,0,1-.339-1.386l3.145-15.268a30.308,30.308,0,0,1-2.362-6.4,30.617,30.617,0,0,1-.874-7.176,30.2,30.2,0,0,1,2.225-11.51,30.482,30.482,0,0,1,6.159-9.547,30.245,30.245,0,0,1,20.585-9.458c.495-.024,1-.036,1.489-.036a30.249,30.249,0,0,1,12.077,2.489,30.354,30.354,0,0,1,9.792,6.771,30.325,30.325,0,0,1,6.457,9.988,30.327,30.327,0,0,1,2.114,12.181,30.093,30.093,0,0,1-2.672,11.532,30.437,30.437,0,0,1-6.605,9.364,30.5,30.5,0,0,1-9.577,6.287,30.166,30.166,0,0,1-11.59,2.3h0c-.157,0-.31,0-.469,0a30.16,30.16,0,0,1-12.925-3.1l-14.951,3.542A1.687,1.687,0,0,1-1546.782,1700.9Zm28.74-60.4c-.478,0-.962.011-1.441.034a29.25,29.25,0,0,0-19.908,9.147,29.341,29.341,0,0,0-8.109,20.365,29.61,29.61,0,0,0,.846,6.941,29.3,29.3,0,0,0,2.361,6.345l.08.156-3.216,15.611a.653.653,0,0,0,.134.553.664.664,0,0,0,.671.229l15.3-3.626.162.081a29.169,29.169,0,0,0,12.658,3.072c.153,0,.3,0,.453,0h0a29.174,29.174,0,0,0,11.208-2.223,29.508,29.508,0,0,0,9.265-6.082,29.442,29.442,0,0,0,6.389-9.058,29.1,29.1,0,0,0,2.584-11.151,29.333,29.333,0,0,0-2.044-11.782,29.329,29.329,0,0,0-6.246-9.66,29.357,29.357,0,0,0-9.471-6.549A29.256,29.256,0,0,0-1518.042,1640.5Zm0,53.411a23.718,23.718,0,0,1-10.662-2.5l-1.944-.969-9.863,2.336,2.076-10.073-.959-1.877a23.688,23.688,0,0,1-2.6-10.874,23.8,23.8,0,0,1,7.016-16.94,23.833,23.833,0,0,1,7.774-5.19,23.836,23.836,0,0,1,9.166-1.826,23.8,23.8,0,0,1,16.94,7.016,23.8,23.8,0,0,1,7.016,16.94,23.839,23.839,0,0,1-1.826,9.166,23.833,23.833,0,0,1-5.19,7.773A23.8,23.8,0,0,1-1518.044,1693.911Zm-12.484-4.524,2.268,1.13a22.726,22.726,0,0,0,10.216,2.394,22.8,22.8,0,0,0,16.233-6.723,22.838,22.838,0,0,0,4.973-7.449,22.843,22.843,0,0,0,1.75-8.783,22.806,22.806,0,0,0-6.723-16.233,22.8,22.8,0,0,0-16.233-6.723,22.844,22.844,0,0,0-8.783,1.75,22.841,22.841,0,0,0-7.449,4.973,22.809,22.809,0,0,0-6.723,16.233,22.7,22.7,0,0,0,2.5,10.42l1.118,2.189-1.83,8.881Zm20.349-4.354h0a16.587,16.587,0,0,1-6.861-1.628,32.412,32.412,0,0,1-8.453-5.908c-5.867-5.477-8.586-10.779-8.081-15.76.252-2.486,2.287-4.683,3.95-6.088a2.667,2.667,0,0,1,1.719-.632,2.668,2.668,0,0,1,2.439,1.586l2.44,5.52a2.661,2.661,0,0,1-.327,2.707l-1.239,1.6a1.6,1.6,0,0,0-.13,1.787,24.054,24.054,0,0,0,4.418,4.828,23.1,23.1,0,0,0,5.329,3.77,1.578,1.578,0,0,0,.6.116,1.629,1.629,0,0,0,1.156-.487l1.42-1.446a2.68,2.68,0,0,1,1.9-.8,2.674,2.674,0,0,1,.734.1l5.8,1.667a2.637,2.637,0,0,1,1.753,1.612,2.647,2.647,0,0,1-.242,2.378c-1.163,1.838-3.061,4.153-5.493,4.742A12.022,12.022,0,0,1-1510.179,1685.033Zm-17.728-29.017a1.644,1.644,0,0,0-1.074.4c-1.522,1.286-3.382,3.272-3.6,5.425-.472,4.653,2.142,9.676,7.768,14.928a31.431,31.431,0,0,0,8.186,5.729,15.6,15.6,0,0,0,6.446,1.538v0a11.024,11.024,0,0,0,2.595-.3c1.163-.282,2.955-1.257,4.884-4.3a1.656,1.656,0,0,0,.152-1.488,1.646,1.646,0,0,0-1.094-1.006l-5.8-1.667a1.67,1.67,0,0,0-.458-.064,1.674,1.674,0,0,0-1.187.5l-1.419,1.445a2.635,2.635,0,0,1-1.87.787,2.574,2.574,0,0,1-.971-.189,23.643,23.643,0,0,1-5.616-3.948,24.584,24.584,0,0,1-4.622-5.078,2.6,2.6,0,0,1,.206-2.9l1.238-1.6a1.661,1.661,0,0,0,.2-1.69l-2.44-5.52A1.668,1.668,0,0,0-1527.907,1656.017Z"
                transform="translate(2892 -1185.312)" fill="rgba(0,0,0,0)" />
        </g>
    </svg>
    <svg viewBox="0 0 57.599 60" id="zalo">
        <defs>
            <clipPath id="a">
                <rect width="57.599" height="60" fill="#ffe000" />
            </clipPath>
        </defs>
        <g transform="translate(0 0)">
            <g transform="translate(0 0)" clip-path="url(#a)">
                <path
                    d="M19.7,51.9a3.206,3.206,0,0,0-2.805-.135,17.837,17.837,0,0,1-7.783,1.423.4.4,0,0,1-.26-.694A7.584,7.584,0,0,0,11.5,46.418a3.141,3.141,0,0,0-.61-1.658c-4.5-6.282-6.023-12.714-6.023-23.7,0-7.252,3.975-15.809,9.379-21.06A22.7,22.7,0,0,0,0,21.06V37.285A22.715,22.715,0,0,0,22.715,60H38.94a22.641,22.641,0,0,0,18.492-9.58c-4.994,3.032-12.544,4.713-20.114,4.713-5.95,0-12.245-.383-17.62-3.237"
                    transform="translate(0 0)" fill="#ffe000" />
                <path
                    d="M62.084,39.129A6.084,6.084,0,1,0,56,33.044a6.093,6.093,0,0,0,6.084,6.084m0-9.735a3.651,3.651,0,1,1-3.651,3.651,3.656,3.656,0,0,1,3.651-3.651"
                    transform="translate(-10.57 -5.089)" fill="#ffe000" />
                <path d="M50.811,38.562h1.622V23.96H50V37.751a.812.812,0,0,0,.811.811"
                    transform="translate(-9.438 -4.523)" fill="#ffe000" />
                <path
                    d="M38.084,39.129a6.027,6.027,0,0,0,3.651-1.248v.436a.812.812,0,0,0,.811.811h1.623V27.366H41.735v.842a6.027,6.027,0,0,0-3.651-1.248,6.084,6.084,0,1,0,0,12.169m0-9.735a3.651,3.651,0,1,1-3.651,3.651,3.656,3.656,0,0,1,3.651-3.651"
                    transform="translate(-6.04 -5.089)" fill="#ffe000" />
                <path
                    d="M16.311,26.394h8.633L15.906,36.94h.042a1.982,1.982,0,0,0-.448,1.217v.406H27.669a.812.812,0,0,0,.811-.811V36.129H19.847l9.039-10.546h-.042a1.982,1.982,0,0,0,.448-1.217V23.96H16.311Z"
                    transform="translate(-2.926 -4.523)" fill="#ffe000" />
            </g>
        </g>
    </svg>
    <g id="close" transform="translate(-7587.992 -1542.898)" width="29.232" height="29.232" viewBox="0 0 29.232 29.232">
        <g transform="translate(7587.992 1542.898)">
            <path
                d="M14.616,0A14.616,14.616,0,1,0,29.232,14.616,14.616,14.616,0,0,0,14.616,0Zm0,27.283A12.667,12.667,0,1,1,27.283,14.616,12.682,12.682,0,0,1,14.616,27.283Z"
                fill="#fff" />
            <path
                d="M130.392,118.2l-5.355,5.357-4.806-5.357a.974.974,0,1,0-1.378,1.378l4.806,5.357-5.431,5.431a.974.974,0,1,0,1.378,1.378l5.357-5.355,4.806,5.355a.974.974,0,1,0,1.376-1.378l-4.808-5.355,5.431-5.433a.974.974,0,1,0-1.376-1.378Z"
                transform="translate(-110.382 -110.353)" fill="#fff" />
        </g>
    </g>
</svg>